#N canvas 311 41 713 510 12;
#X declare -path ..;
#X obj 376 34 declare -path ..;
#X obj 78 251 unpack;
#X msg 476 143 vis \$1;
#X obj 476 123 tgl 15 0 empty empty empty 17 7 0 10 -262144 -1 -1 1
1;
#X text 526 143 show/hide editor;
#X msg 310 121 open -e SimpleDecoder;
#X floatatom 192 73 5 0 63 0 src - -;
#X obj 78 274 swap;
#X obj 79 299 dbtorms;
#X obj 193 43 r src-ix;
#X obj 79 380 r ambi-req;
#X obj 78 450 s ambi-gains;
#X obj 79 335 array set gains;
#X obj 78 405 bng 15 250 50 0 empty empty empty 17 7 0 10 -262144 -1
-1;
#X obj 77 423 array get gains;
#X obj 204 334 array define gains 21;
#X msg 192 95 all 0 \, \$1 1;
#X obj 78 45 osc~ 10000;
#X obj 78 125 mc.copy~ 64;
#X obj 78 182 mc.effect 21 vstplugin~ 64 21;
#X obj 78 211 mc.sink 1 env~;
#X obj 78 154 mc.op *~ 0;
#X connect 1 0 7 0;
#X connect 1 1 7 1;
#X connect 2 0 19 1;
#X connect 3 0 2 0;
#X connect 5 0 19 1;
#X connect 6 0 16 0;
#X connect 7 0 8 0;
#X connect 7 1 12 1;
#X connect 8 0 12 0;
#X connect 9 0 6 0;
#X connect 10 0 13 0;
#X connect 13 0 14 0;
#X connect 14 0 11 0;
#X connect 16 0 21 1;
#X connect 17 0 18 0;
#X connect 18 0 21 0;
#X connect 19 0 20 0;
#X connect 20 0 1 0;
#X connect 21 0 19 0;
