#N canvas 10 23 200 200 10;
#N canvas 20 23 420 300 META 0;
#X text 10 10 META this is a prototype of a libdir meta file;
#X text 10 110 VERSION 0.1;
#X text 10 50 AUTHOR Thomas Grill;
#X text 10 30 NAME mc;
#X text 10 90 LICENSE GPL v3.0;
#X text 10 70 DESCRIPTION Pure data multi-channel extension;
#X restore 10 10 pd META;
