#N canvas 597 45 600 326 12;
#X obj 44 38 inlet;
#X obj 298 39 loadbang;
#N canvas 102 23 903 682 gen 0;
#X obj 323 37 inlet;
#X text 471 237 erase;
#X text 140 259 index;
#X obj 52 636 outlet;
#N canvas 0 23 421 295 accum 0;
#X obj 52 23 inlet;
#X obj 51 242 outlet;
#X obj 174 176 t a;
#X obj 52 50 t b a b, f 17;
#X obj 51 208 list;
#X msg 121 114 0;
#X obj 74 113 until;
#X obj 74 145 f;
#X obj 107 146 + 1;
#X obj 74 176 list prepend;
#X connect 0 0 3 0;
#X connect 2 0 9 1;
#X connect 3 0 4 0;
#X connect 3 1 6 0;
#X connect 3 2 5 0;
#X connect 3 2 9 1;
#X connect 4 0 1 0;
#X connect 5 0 7 1;
#X connect 6 0 7 0;
#X connect 7 0 8 0;
#X connect 7 0 9 0;
#X connect 8 0 7 1;
#X connect 9 0 4 1;
#X connect 9 0 2 0;
#X restore 405 296 pd accum;
#X obj 50 195 mc._gen \$0-dyn;
#X obj 213 37 r \$0-dyn;
#X obj 425 641 s \$0-dyn;
#X obj 405 261 t f b;
#N canvas 649 119 585 297 connections 0;
#X obj 63 26 inlet;
#X text 109 24 index;
#X obj 62 214 outlet;
#X text 160 77 send~;
#X obj 63 63 expr $i1*2+2 \; $i1*2+3 \; $i1 \; $i1+1 \;;
#X text 159 62 abs;
#X obj 62 136 pack 0 0 0 0;
#X msg 62 173 connect 1 0 \$1 0 \, connect 1 \$4 \$1 0 \, connect \$1
0 \$2 0;
#X connect 0 0 4 0;
#X connect 4 0 6 0;
#X connect 4 1 6 1;
#X connect 4 2 6 2;
#X connect 4 3 6 3;
#X connect 6 0 7 0;
#X connect 7 0 2 0;
#X restore 151 556 pd connections;
#X msg 465 257 vis 1 \, editmode 1 \, mouse 0 30 0 0 \, mouseup 10000
10000 0 \, cut \, editmode 0 \, vis 0;
#X text 419 317 list 0 1 2 3 ... n-1;
#X obj 52 610 list prepend \$0;
#X obj 323 66 list split 1;
#X text 318 98 #out;
#X obj 523 37 inlet;
#X obj 254 316 * 25;
#X obj 255 341 + 60;
#X msg 188 518 obj 500 \$3 send~ \$2-mc-\$1;
#X obj 188 490 pack f \$0 f;
#X obj 50 164 f;
#X text 322 18 #out abs options;
#X obj 435 402 list prepend obj 10 30 route -1;
#X msg 406 435 connect 0 0 1 0;
#X obj 148 285 t f f b f;
#X obj 203 378 pack 10 0;
#X obj 203 406 list append;
#X obj 204 432 list prepend obj;
#X obj 406 367 t b a;
#X connect 0 0 13 0;
#X connect 4 0 28 0;
#X connect 5 0 12 0;
#X connect 5 1 24 0;
#X connect 5 2 8 0;
#X connect 6 0 5 1;
#X connect 8 0 4 0;
#X connect 8 1 10 0;
#X connect 9 0 7 0;
#X connect 10 0 7 0;
#X connect 12 0 3 0;
#X connect 13 0 20 0;
#X connect 13 1 26 1;
#X connect 15 0 10 0;
#X connect 16 0 17 0;
#X connect 17 0 19 2;
#X connect 17 0 25 1;
#X connect 18 0 7 0;
#X connect 19 0 18 0;
#X connect 20 0 5 0;
#X connect 22 0 7 0;
#X connect 23 0 7 0;
#X connect 24 0 9 0;
#X connect 24 1 19 0;
#X connect 24 2 25 0;
#X connect 24 3 16 0;
#X connect 25 0 26 0;
#X connect 26 0 27 0;
#X connect 27 0 7 0;
#X connect 28 0 23 0;
#X connect 28 1 22 0;
#X restore 45 216 pd gen;
#X obj 298 88 pdcontrol;
#X obj 46 248 outlet;
#X obj 214 188 cnv 15 100 60 empty empty dyn 5 12 0 14 -233017 -66577
0;
#N canvas 178 -698 753 480 \$0-dyn 0;
#X obj 10 5 inlet;
#X restore 220 214 pd \$0-dyn;
#X obj 150 38 inlet;
#X text 212 271 TODO: set receive~s on unchanged signal count;
#X msg 298 65 args 1;
#X text 370 91 arguments of parent patch;
#X obj 45 88 route set;
#X obj 45 112 t b a;
#X text 364 37 arguments: (#out) abs [options];
#X obj 99 220 bng 15 250 50 0 empty empty reset 17 7 0 10 -261234 -1
-1;
#X connect 0 0 11 0;
#X connect 1 0 9 0;
#X connect 2 0 4 0;
#X connect 3 0 2 0;
#X connect 9 0 3 0;
#X connect 11 0 12 0;
#X connect 12 1 2 0;
#X connect 14 0 2 1;
