#N canvas 0 23 428 390 12;
#X obj 54 38 inlet;
#X obj 133 38 inlet;
#X obj 200 38 inlet;
#X obj 275 40 inlet;
#X obj 154 331 outlet;
#X text 37 22 channels;
#X obj 151 127 f;
#X obj 189 126 + 1;
#X obj 122 301 t b a;
#X obj 54 68 t b f;
#X obj 268 99 >= 0;
#X obj 151 158 spigot;
#X obj 209 159 spigot;
#X text 164 177 up;
#X text 224 177 down;
#X obj 306 99 < 0;
#X obj 151 242 moses;
#X obj 151 267 max 0;
#X obj 211 222 moses;
#X obj 212 270 min;
#X obj 166 218 min;
#X obj 244 268 - 1;
#X obj 254 222 + 1;
#X text 133 19 start;
#X text 201 21 stop;
#X text 278 22 step;
#X obj 151 102 f;
#X connect 0 0 9 0;
#X connect 1 0 26 1;
#X connect 2 0 20 1;
#X connect 2 0 22 0;
#X connect 3 0 7 1;
#X connect 3 0 10 0;
#X connect 3 0 15 0;
#X connect 6 0 7 0;
#X connect 6 0 11 0;
#X connect 6 0 12 0;
#X connect 7 0 6 1;
#X connect 8 0 6 0;
#X connect 8 1 4 0;
#X connect 9 0 26 0;
#X connect 9 1 20 0;
#X connect 9 1 21 0;
#X connect 10 0 11 1;
#X connect 11 0 16 0;
#X connect 12 0 18 0;
#X connect 15 0 12 1;
#X connect 16 0 17 0;
#X connect 17 0 8 0;
#X connect 18 1 19 0;
#X connect 19 0 8 0;
#X connect 20 0 16 1;
#X connect 21 0 19 1;
#X connect 22 0 18 1;
#X connect 26 0 6 0;
