#N canvas 215 203 600 326 12;
#X obj 44 38 inlet;
#X obj 298 39 loadbang;
#N canvas 42 23 977 669 gen 0;
#X obj 285 31 inlet;
#X obj 105 440 list append;
#X text 526 193 erase;
#X text 84 276 index;
#X obj 105 467 list prepend obj;
#X obj 172 326 * 25;
#X text 235 369 y;
#X obj 105 416 pack 200 0;
#X obj 51 618 outlet;
#X obj 49 31 inlet;
#N canvas 0 23 421 295 accum 0;
#X obj 52 23 inlet;
#X obj 51 242 outlet;
#X obj 174 176 t a;
#X obj 52 50 t b a b, f 17;
#X obj 51 208 list;
#X msg 121 114 0;
#X obj 74 113 until;
#X obj 74 145 f;
#X obj 107 146 + 1;
#X obj 74 176 list prepend;
#X connect 0 0 3 0;
#X connect 2 0 9 1;
#X connect 3 0 4 0;
#X connect 3 1 6 0;
#X connect 3 2 5 0;
#X connect 3 2 9 1;
#X connect 4 0 1 0;
#X connect 5 0 7 1;
#X connect 6 0 7 0;
#X connect 7 0 8 0;
#X connect 7 0 9 0;
#X connect 8 0 7 1;
#X connect 9 0 4 1;
#X connect 9 0 2 0;
#X restore 413 247 pd accum;
#X obj 49 149 mc._gen \$0-dyn;
#X obj 453 31 r \$0-dyn;
#X obj 470 619 s \$0-dyn;
#X obj 413 216 t f b;
#X obj 79 298 t f b f f, f 10;
#N canvas 154 387 585 297 connections 0;
#X obj 63 26 inlet;
#X text 109 24 index;
#X text 159 76 abs;
#X text 159 62 receive~;
#X text 160 91 send~;
#X text 159 105 index+1;
#X obj 62 214 outlet;
#X obj 63 63 expr $i1*3+4 \; $i1*3+6 \; $i1*3+5 \; $i1 \; $i1+1;
#X msg 62 173 connect 2 \$4 \$1 0 \, connect 3 0 \$2 0 \, connect 3
\$5 \$2 0 \, connect \$1 0 \$2 0 \, connect \$2 0 \$3 0;
#X obj 62 146 pack 0 0 0 0 0;
#X connect 0 0 7 0;
#X connect 7 0 9 0;
#X connect 7 1 9 1;
#X connect 7 2 9 2;
#X connect 7 3 9 3;
#X connect 7 4 9 4;
#X connect 8 0 6 0;
#X connect 9 0 8 0;
#X restore 82 517 pd connections;
#X obj 172 349 + 60;
#X obj 436 346 list prepend obj 200 30 route -1;
#X msg 520 213 vis 1 \, editmode 1 \, mouse 0 30 0 0 \, mouseup 10000
10000 0 \, cut \, editmode 0 \, vis 0;
#X text 329 30 options;
#X obj 49 122 f;
#X obj 459 319 list prepend obj 10 30 route;
#X msg 413 384 connect 0 0 2 0 \, connect 1 0 3 0;
#X text 423 266 list 0 1 2 3 ... n-1;
#X obj 51 592 list prepend \$0;
#X obj 49 66 unpack f f;
#X obj 49 95 t b f;
#X obj 236 439 pack f \$0 f f;
#X msg 236 467 obj 10 \$3 receive~ \$4-mc-\$1 \, obj 500 \$3 send~
\$2-mc-\$1;
#X text 93 33 symbol mc-id channels;
#X obj 413 292 t b a a;
#X obj 581 31 inlet;
#X text 624 33 reset;
#X msg 557 533 0;
#X obj 517 164 t b b;
#X connect 0 0 1 1;
#X connect 1 0 4 0;
#X connect 4 0 13 0;
#X connect 5 0 17 0;
#X connect 7 0 1 0;
#X connect 9 0 26 0;
#X connect 10 0 31 0;
#X connect 11 0 25 0;
#X connect 11 1 15 0;
#X connect 11 2 14 0;
#X connect 12 0 11 1;
#X connect 14 0 10 0;
#X connect 14 1 35 0;
#X connect 15 0 16 0;
#X connect 15 1 7 0;
#X connect 15 2 28 0;
#X connect 15 3 5 0;
#X connect 16 0 13 0;
#X connect 17 0 7 1;
#X connect 17 0 28 2;
#X connect 18 0 13 0;
#X connect 19 0 13 0;
#X connect 21 0 11 0;
#X connect 22 0 13 0;
#X connect 23 0 13 0;
#X connect 25 0 8 0;
#X connect 26 0 27 0;
#X connect 26 1 21 1;
#X connect 27 0 21 0;
#X connect 27 1 28 3;
#X connect 28 0 29 0;
#X connect 29 0 13 0;
#X connect 31 0 23 0;
#X connect 31 1 18 0;
#X connect 31 2 22 0;
#X connect 32 0 35 0;
#X connect 34 0 25 0;
#X connect 35 0 19 0;
#X connect 35 1 34 0;
#X restore 45 216 pd gen;
#X obj 298 88 pdcontrol;
#X obj 46 248 outlet;
#X obj 214 188 cnv 15 100 60 empty empty dyn 5 12 0 14 -233017 -66577
0;
#N canvas 356 212 753 480 \$0-dyn 0;
#X obj 10 5 inlet;
#X obj 200 5 inlet;
#X restore 220 214 pd \$0-dyn;
#X obj 150 38 inlet;
#X text 212 271 TODO: set receive~s on unchanged signal count;
#X msg 298 65 args 1;
#X text 370 91 arguments of parent patch;
#X text 364 37 arguments: abs [options];
#N canvas 0 23 225 188 args 0;
#X obj 44 24 inlet;
#X obj 45 129 outlet;
#X obj 45 93 list prepend -1;
#X obj 45 64 route all;
#X connect 0 0 3 0;
#X connect 2 0 1 0;
#X connect 3 0 2 0;
#X connect 3 1 1 0;
#X restore 151 89 pd args;
#X obj 45 88 route set;
#X obj 45 112 t b a;
#X obj 98 218 bng 15 250 50 0 empty empty reset 17 7 0 10 -261234 -1
-1;
#X connect 0 0 13 0;
#X connect 1 0 9 0;
#X connect 2 0 4 0;
#X connect 3 0 2 1;
#X connect 7 0 12 0;
#X connect 9 0 3 0;
#X connect 12 0 6 1;
#X connect 13 0 14 0;
#X connect 13 1 2 0;
#X connect 14 0 2 0;
#X connect 14 1 2 1;
#X connect 15 0 2 2;
