#N canvas 0 23 201 264 12;
#X obj 56 28 inlet;
#X obj 59 202 outlet;
#X msg 83 90 0;
#X obj 58 132 until;
#X obj 58 156 f;
#X obj 89 156 + 1;
#X obj 57 62 t a b;
#X connect 0 0 6 0;
#X connect 2 0 4 1;
#X connect 3 0 4 0;
#X connect 4 0 1 0;
#X connect 4 0 5 0;
#X connect 5 0 4 1;
#X connect 6 0 3 0;
#X connect 6 1 2 0;
