#N canvas 392 145 610 447 12;
#X obj 45 45 inlet;
#X text 43 24 count;
#X obj 253 139 mc._cnt;
#X obj 159 353 mc._fwd;
#X text 310 361 post;
#X text 378 359 index;
#X text 444 359 pre;
#X obj 311 338 outlet;
#X obj 378 339 outlet;
#X obj 442 339 outlet;
#X obj 151 43 inlet;
#X obj 159 318 list prepend pd-\$1;
#X text 149 23 msg to dyn patcher;
#X obj 45 84 t b b f f f b b, f 57;
#X msg 46 238 dirty 0 \, loadbang;
#X connect 0 0 13 0;
#X connect 2 0 8 0;
#X connect 10 0 11 0;
#X connect 11 0 3 0;
#X connect 13 0 14 0;
#X connect 13 2 7 0;
#X connect 13 3 2 0;
#X connect 13 4 9 0;
#X connect 14 0 11 0;
