#N canvas 113 114 338 351 12;
#N canvas 34 23 1006 739 gen 0;
#X text 549 260 erase;
#X text 100 276 index;
#X obj 420 383 * 25;
#X text 458 404 y;
#X obj 52 695 outlet;
#X obj 49 23 inlet;
#X obj 50 195 mc._gen \$0-dyn;
#X obj 165 167 r \$0-dyn;
#X obj 481 701 s \$0-dyn;
#X msg 526 282 vis 1 \, editmode 1 \, mouse 0 30 0 0 \, mouseup 10000
10000 0 \, cut \, editmode 0 \, vis 0;
#X obj 302 23 inlet;
#X obj 116 99 +;
#X text 345 42 right inlet always precedes left inlet;
#X obj 50 151 f;
#X text 21 170 total channels;
#X obj 154 355 moses;
#X text 189 537 receive~;
#X text 190 551 send~;
#X obj 95 298 t f f f, f 17;
#X obj 154 380 t f b f;
#X obj 268 379 t f b f;
#X obj 342 407 -;
#X obj 185 327 t f f;
#X obj 49 64 unpack f f;
#X obj 302 64 unpack f f;
#X obj 154 470 pack f \$0 f f f;
#X obj 184 410 f;
#X obj 270 408 f;
#X msg 154 495 obj 10 \$3 receive~ \$4-mc-\$5 \, obj 500 \$3 send~
\$2-mc-\$1;
#X text 93 25 symbol mc-id channels;
#X text 346 25 symbol mc-id channels;
#X obj 51 656 list prepend \$0;
#X obj 668 31 inlet;
#X obj 49 87 t b f;
#X obj 481 255 t f b;
#N canvas 0 23 421 295 accum 0;
#X obj 52 23 inlet;
#X obj 51 242 outlet;
#X obj 174 176 t a;
#X obj 52 50 t b a b, f 17;
#X obj 51 208 list;
#X msg 121 114 0;
#X obj 74 113 until;
#X obj 74 145 f;
#X obj 107 146 + 1;
#X obj 74 176 list prepend;
#X connect 0 0 3 0;
#X connect 2 0 9 1;
#X connect 3 0 4 0;
#X connect 3 1 6 0;
#X connect 3 2 5 0;
#X connect 3 2 9 1;
#X connect 4 0 1 0;
#X connect 5 0 7 1;
#X connect 6 0 7 0;
#X connect 7 0 8 0;
#X connect 7 0 9 0;
#X connect 8 0 7 1;
#X connect 9 0 4 1;
#X connect 9 0 2 0;
#X restore 488 329 pd accum;
#X obj 511 403 list prepend obj 10 30 route;
#X text 498 348 list 0 1 2 3 ... n-1;
#X msg 487 434 connect 0 0 1 0;
#X obj 488 374 t b a;
#X obj 95 538 expr $i1*2+2 \; $i1*2+3 \; $i1;
#X obj 95 592 pack 0 0 0;
#X msg 95 616 connect 1 \$3 \$1 0 \, connect \$1 0 \$2 0;
#X obj 420 406 + 60;
#X connect 2 0 43 0;
#X connect 5 0 23 0;
#X connect 6 0 31 0;
#X connect 6 1 18 0;
#X connect 6 2 34 0;
#X connect 7 0 6 1;
#X connect 9 0 8 0;
#X connect 10 0 24 0;
#X connect 11 0 13 1;
#X connect 13 0 6 0;
#X connect 15 0 19 0;
#X connect 15 1 20 0;
#X connect 18 0 40 0;
#X connect 18 1 15 0;
#X connect 18 2 2 0;
#X connect 19 0 25 0;
#X connect 19 1 26 0;
#X connect 19 2 25 4;
#X connect 20 0 25 0;
#X connect 20 1 27 0;
#X connect 20 2 21 0;
#X connect 21 0 25 4;
#X connect 22 0 15 1;
#X connect 22 1 21 1;
#X connect 23 0 33 0;
#X connect 23 1 11 0;
#X connect 23 1 22 0;
#X connect 24 0 27 1;
#X connect 24 1 11 1;
#X connect 25 0 28 0;
#X connect 26 0 25 3;
#X connect 27 0 25 3;
#X connect 28 0 8 0;
#X connect 31 0 4 0;
#X connect 32 0 9 0;
#X connect 33 0 13 0;
#X connect 33 1 26 1;
#X connect 34 0 35 0;
#X connect 34 1 9 0;
#X connect 35 0 39 0;
#X connect 36 0 8 0;
#X connect 38 0 8 0;
#X connect 39 0 38 0;
#X connect 39 1 36 0;
#X connect 40 0 41 0;
#X connect 40 1 41 1;
#X connect 40 2 41 2;
#X connect 41 0 42 0;
#X connect 42 0 8 0;
#X connect 43 0 25 2;
#X restore 45 178 pd gen;
#X obj 171 124 cnv 15 100 60 empty empty dyn 5 12 0 14 -233017 -66577
0;
#N canvas 113 148 753 480 \$0-dyn 0;
#X obj 25 3 inlet;
#X restore 177 150 pd \$0-dyn;
#N canvas 59 402 442 286 sync 0;
#X obj 34 190 list;
#X obj 37 25 inlet;
#X obj 236 24 inlet;
#X obj 35 221 outlet;
#X obj 268 222 outlet;
#X obj 236 54 route bang;
#X obj 37 56 route bang;
#X obj 37 122 t b a;
#X obj 236 120 t b a;
#X obj 37 82 list append 0 0;
#X obj 236 83 list append 0 0;
#X connect 0 0 3 0;
#X connect 1 0 6 0;
#X connect 2 0 5 0;
#X connect 5 0 10 0;
#X connect 5 1 8 0;
#X connect 6 0 9 0;
#X connect 6 1 7 0;
#X connect 7 0 0 0;
#X connect 7 1 0 1;
#X connect 8 0 0 0;
#X connect 8 1 4 0;
#X connect 9 0 7 0;
#X connect 10 0 8 0;
#X restore 44 111 pd sync;
#X obj 44 37 inlet;
#X obj 91 37 inlet;
#X obj 43 297 outlet;
#X text 46 264 channels;
#X obj 94 179 bng 15 250 50 0 empty empty reset 17 7 0 10 -261234 -1
-1;
#X connect 0 0 6 0;
#X connect 3 0 0 0;
#X connect 3 1 0 1;
#X connect 4 0 3 0;
#X connect 5 0 3 1;
#X connect 8 0 0 2;
