#N canvas 597 45 600 326 12;
#X obj 298 39 loadbang;
#N canvas 152 23 783 649 gen 0;
#X text 358 290 erase;
#X text 96 279 index;
#X obj 54 586 outlet;
#X obj 49 23 inlet;
#X obj 50 195 mc._gen \$0-dyn;
#X obj 214 21 r \$0-dyn;
#X obj 331 591 s \$0-dyn;
#N canvas 595 412 280 196 connections 0;
#X obj 63 26 inlet;
#X text 109 24 index;
#X obj 62 132 outlet;
#X text 92 62 send~;
#X msg 62 97 connect 0 0 \$1 0;
#X obj 63 63 + 1;
#X connect 0 0 5 0;
#X connect 4 0 2 0;
#X connect 5 0 4 0;
#X restore 105 481 pd connections;
#X msg 330 316 vis 1 \, editmode 1 \, mouse 0 30 0 0 \, mouseup 10000
10000 0 \, cut \, editmode 0 \, vis 0;
#X obj 49 125 f;
#X obj 54 560 list prepend \$0;
#X obj 331 19 inlet;
#X obj 104 305 t f f f;
#X obj 150 339 * 25;
#X obj 151 364 + 60;
#X text 93 25 channels;
#X obj 142 415 pack f \$0 f;
#X msg 142 443 obj 50 \$3 send~ \$2-mc-\$1;
#X connect 3 0 9 0;
#X connect 4 0 10 0;
#X connect 4 1 12 0;
#X connect 4 2 8 0;
#X connect 5 0 4 1;
#X connect 7 0 6 0;
#X connect 8 0 6 0;
#X connect 9 0 4 0;
#X connect 10 0 2 0;
#X connect 11 0 8 0;
#X connect 12 0 7 0;
#X connect 12 1 16 0;
#X connect 12 2 13 0;
#X connect 13 0 14 0;
#X connect 14 0 16 2;
#X connect 16 0 17 0;
#X connect 17 0 6 0;
#X restore 45 216 pd gen;
#X obj 298 88 pdcontrol;
#X obj 45 252 outlet;
#X obj 214 188 cnv 15 100 60 empty empty dyn 5 12 0 14 -233017 -66577
0;
#N canvas 489 193 753 480 \$0-dyn 0;
#X obj 26 5 inlet~;
#X restore 220 214 pd \$0-dyn;
#X text 212 271 TODO: set receive~s on unchanged signal count;
#X msg 298 65 args 1;
#X text 370 91 arguments of parent patch;
#X obj 99 220 bng 15 250 50 0 empty empty reset 17 7 0 10 -261234 -1
-1;
#X obj 44 38 inlet~ fwd;
#X text 364 37 arguments: #out;
#X obj 45 150 route set;
#X connect 0 0 7 0;
#X connect 1 0 3 0;
#X connect 2 0 1 0;
#X connect 7 0 2 0;
#X connect 9 0 1 1;
#X connect 10 0 5 0;
#X connect 10 1 12 0;
#X connect 12 0 1 0;
