#N canvas 392 145 610 447 12;
#X obj 45 45 inlet;
#X text 43 24 count;
#X msg 175 272 loadbang;
#X obj 253 139 mc._cnt;
#X obj 159 353 mc._fwd;
#X text 310 361 post;
#X text 378 359 index;
#X text 444 359 pre;
#X obj 311 338 outlet;
#X obj 378 339 outlet;
#X obj 442 339 outlet;
#X obj 151 43 inlet;
#X obj 159 318 list prepend pd-\$1;
#X text 149 23 msg to dyn patcher;
#X obj 469 144 mc._dsp;
#X obj 59 355 s pd;
#X msg 85 284 dsp \$1;
#X obj 84 258 f;
#X msg 115 259 0;
#X obj 442 172 f;
#X obj 441 117 t b b;
#X obj 69 321 spigot 0;
#X msg 49 284 1;
#X obj 45 84 t b b f f f b b, f 57;
#X connect 0 0 23 0;
#X connect 2 0 12 0;
#X connect 3 0 9 0;
#X connect 11 0 12 0;
#X connect 12 0 4 0;
#X connect 14 0 19 1;
#X connect 16 0 21 0;
#X connect 17 0 16 0;
#X connect 18 0 16 0;
#X connect 19 0 17 1;
#X connect 20 0 19 0;
#X connect 20 1 14 0;
#X connect 22 0 21 1;
#X connect 23 0 2 0;
#X connect 23 0 22 0;
#X connect 23 1 17 0;
#X connect 23 2 8 0;
#X connect 23 3 3 0;
#X connect 23 4 10 0;
#X connect 23 5 18 0;
#X connect 23 6 20 0;
