#N canvas 0 23 835 557 12;
#X obj 44 43 inlet;
#X obj 606 458 mc._fwd;
#X obj 133 452 outlet;
#X obj 604 59 inlet;
#X text 602 39 msg to dyn patcher;
#X msg 472 397 dirty 0 \, loadbang;
#X obj 45 451 outlet;
#X msg 650 317 0;
#N canvas 0 23 490 169 clear 0;
#X obj 30 18 inlet;
#X obj 28 103 outlet;
#X msg 29 52 vis 1 \, editmode 1 \, mouse 0 30 0 0 \, mouseup 10000
10000 0 \, cut \, editmode 0 \, vis 0 \, dirty 0;
#X connect 0 0 2 0;
#X connect 2 0 1 0;
#X restore 619 397 pd clear;
#X obj 618 288 t b b;
#X obj 432 453 outlet;
#X obj 44 211 f;
#X obj 110 107 unpack f f;
#X obj 44 187 t b f, f 40;
#X obj 44 132 f;
#X text 325 211 id;
#X text 93 51 - bang;
#X obj 44 78 route bang list reset, f 29;
#X obj 24 160 select 0;
#X text 88 159 filter id 0;
#X text 72 133 id;
#X obj 306 45 inlet;
#X text 306 25 chns-out;
#X text 91 37 - list id-in chns-in;
#X text 43 474 chns-out;
#X text 434 473 id-in;
#X obj 45 375 f;
#X text 124 474 chns-out chns-in;
#X obj 133 329 swap;
#X obj 133 351 pack;
#N canvas 0 23 327 344 chns-out 0;
#X obj 125 134 select -1;
#X obj 185 159 t f b;
#X msg 186 221 0;
#X msg 149 221 1;
#X obj 45 256 spigot;
#X obj 45 44 inlet;
#X obj 125 45 inlet;
#X obj 45 282 outlet;
#X text 40 23 chns-in;
#X text 122 23 chns-out;
#X obj 46 197 f;
#X obj 125 159 t b b;
#X obj 125 81 f -1;
#X obj 216 47 loadbang;
#X connect 0 0 11 0;
#X connect 0 1 1 0;
#X connect 1 0 4 0;
#X connect 1 1 2 0;
#X connect 2 0 4 1;
#X connect 3 0 4 1;
#X connect 4 0 7 0;
#X connect 5 0 10 0;
#X connect 6 0 12 0;
#X connect 10 0 4 0;
#X connect 11 0 10 0;
#X connect 11 1 3 0;
#X connect 12 0 0 0;
#X connect 13 0 12 0;
#X restore 180 215 pd chns-out;
#X obj 45 426 change;
#X obj 44 285 t b b f b, f 25;
#X text 71 212 chns-in;
#X obj 271 453 outlet;
#X text 269 475 chns-out chns-in;
#X obj 133 373 t a a;
#X obj 133 427 spigot;
#X obj 271 429 spigot;
#X text 354 43 if not set \, equals chns-in;
#X text 121 502 just set receive~s;
#X text 271 489 make new objects;
#X text 124 487 counts unchanged;
#X obj 471 374 spigot;
#N canvas 185 147 407 290 chns-chgd 0;
#X obj 64 21 inlet;
#X obj 201 21 inlet;
#X obj 63 246 outlet;
#X obj 120 245 outlet;
#X obj 183 245 outlet;
#X obj 115 209 f;
#X obj 64 53 t f b f f;
#X obj 202 52 t f f;
#X obj 184 210 ||;
#X obj 125 110 != -1e+30;
#X obj 201 110 != -1e+30;
#X connect 0 0 6 0;
#X connect 1 0 7 0;
#X connect 5 0 3 0;
#X connect 6 0 2 0;
#X connect 6 1 5 0;
#X connect 6 2 9 1;
#X connect 6 3 9 0;
#X connect 7 0 5 1;
#X connect 7 0 10 1;
#X connect 7 1 10 0;
#X connect 8 0 4 0;
#X connect 9 0 8 0;
#X connect 10 0 8 1;
#X restore 44 244 pd chns-chgd;
#X f 27;
#X obj 252 390 == 0;
#X obj 606 427 list prepend pd-\$1;
#X obj 618 266 spigot;
#X connect 0 0 17 0;
#X connect 3 0 46 0;
#X connect 5 0 46 0;
#X connect 7 0 31 0;
#X connect 8 0 46 0;
#X connect 9 0 8 0;
#X connect 9 1 7 0;
#X connect 11 0 44 0;
#X connect 12 0 14 0;
#X connect 12 1 11 1;
#X connect 12 1 30 0;
#X connect 13 0 11 0;
#X connect 13 1 10 0;
#X connect 14 0 18 0;
#X connect 17 0 14 0;
#X connect 17 1 12 0;
#X connect 17 2 9 0;
#X connect 18 1 13 0;
#X connect 21 0 30 1;
#X connect 26 0 31 0;
#X connect 28 0 29 0;
#X connect 28 1 29 1;
#X connect 29 0 36 0;
#X connect 30 0 44 1;
#X connect 31 0 6 0;
#X connect 32 0 26 0;
#X connect 32 1 43 0;
#X connect 32 2 28 0;
#X connect 32 3 47 0;
#X connect 36 0 37 0;
#X connect 36 1 38 0;
#X connect 37 0 2 0;
#X connect 38 0 34 0;
#X connect 43 0 5 0;
#X connect 44 0 32 0;
#X connect 44 1 26 1;
#X connect 44 1 28 1;
#X connect 44 2 45 0;
#X connect 44 2 38 1;
#X connect 44 2 43 1;
#X connect 44 2 47 1;
#X connect 45 0 37 1;
#X connect 46 0 1 0;
#X connect 47 0 9 0;
