#N canvas 534 329 357 291 12;
#X obj 44 38 inlet;
#N canvas 63 62 611 376 gen 0;
#X obj 460 55 inlet;
#X obj 57 308 outlet;
#X obj 61 50 inlet;
#X obj 318 52 r \$0-dyn;
#X obj 304 313 s \$0-dyn;
#X text 504 54 options;
#X text 109 51 - bang;
#X text 107 67 - reset;
#X obj 57 283 list prepend \$0;
#X text 318 133 id-in;
#X text 30 133 chns-out;
#X text 42 148 to next;
#X obj 60 111 mc._generate \$0-dyn, f 37;
#X text 107 35 - list id-in chns-in;
#X obj 231 136 t f f;
#N canvas 0 23 450 300 new-base 0;
#X obj 67 181 list prepend obj 200 30 route -1;
#X obj 90 154 list prepend obj 10 30 route;
#X msg 44 219 connect 0 0 2 0 \, connect 1 0 3 0;
#X text 48 83 list 0 1 2 3 ... n-1;
#X obj 44 127 t b a a;
#X obj 44 64 mc._listseq;
#X text 44 46 channels;
#X obj 45 20 inlet;
#X obj 44 256 outlet;
#X connect 0 0 8 0;
#X connect 1 0 8 0;
#X connect 2 0 8 0;
#X connect 4 0 2 0;
#X connect 4 1 0 0;
#X connect 4 2 1 0;
#X connect 5 0 4 0;
#X connect 7 0 5 0;
#X restore 335 212 pd new-base;
#N canvas 476 94 737 605 new-map 0;
#X obj 174 254 list append;
#X obj 174 320 list prepend obj;
#X obj 274 145 * 25;
#X text 161 151 y;
#X obj 52 80 t f b f f, f 10;
#X obj 274 168 + 60;
#X obj 297 238 pack f \$0 f f;
#X msg 305 282 obj 10 \$3 receive~ \$4-mc-\$1 \, obj 500 \$3 send~
\$2-mc-\$1;
#X text 71 61 ch index;
#X obj 52 43 mc._cnt;
#X obj 51 13 inlet;
#X text 98 316 index;
#X text 148 368 abs;
#X text 148 354 receive~;
#X text 149 383 send~;
#X text 148 397 index+1;
#X obj 172 549 outlet;
#X obj 52 355 expr $i1*3+4 \; $i1*3+6 \; $i1*3+5 \; $i1 \; $i1+1;
#X obj 51 438 pack 0 0 0 0 0;
#X msg 51 465 connect 2 \$4 \$1 0 \, connect 3 0 \$2 0 \, connect 3
\$5 \$2 0 \, connect \$1 0 \$2 0 \, connect \$2 0 \$3 0;
#X obj 424 21 inlet;
#X obj 319 22 inlet;
#X obj 174 231 pack 200 0;
#X obj 423 71 list split 1;
#X obj 174 276 list append;
#X obj 174 298 list append;
#X connect 0 0 24 0;
#X connect 1 0 16 0;
#X connect 2 0 5 0;
#X connect 4 0 17 0;
#X connect 4 1 22 0;
#X connect 4 2 6 0;
#X connect 4 3 2 0;
#X connect 4 3 24 1;
#X connect 5 0 6 2;
#X connect 5 0 22 1;
#X connect 6 0 7 0;
#X connect 7 0 16 0;
#X connect 9 0 4 0;
#X connect 10 0 9 0;
#X connect 17 0 18 0;
#X connect 17 1 18 1;
#X connect 17 2 18 2;
#X connect 17 3 18 3;
#X connect 17 4 18 4;
#X connect 18 0 19 0;
#X connect 19 0 16 0;
#X connect 20 0 23 0;
#X connect 21 0 6 3;
#X connect 22 0 0 0;
#X connect 23 0 0 1;
#X connect 23 1 25 1;
#X connect 24 0 25 0;
#X connect 25 0 1 0;
#X restore 234 213 pd new-map;
#N canvas 533 164 373 287 set-recvs 0;
#X obj 63 35 inlet;
#X obj 276 36 inlet;
#X obj 64 228 outlet;
#X obj 63 115 mc._cnt;
#X msg 64 193 \$1 set \$2-mc-\$1;
#X obj 63 163 pack f f;
#X text 277 17 id-in;
#X obj 62 59 unpack;
#X text 59 16 chns-out chns-in (equal);
#X connect 0 0 7 0;
#X connect 1 0 5 1;
#X connect 3 0 5 0;
#X connect 4 0 2 0;
#X connect 5 0 4 0;
#X connect 7 0 3 0;
#X restore 137 213 pd set-recvs;
#X obj 219 313 outlet;
#X connect 0 0 16 2;
#X connect 2 0 12 0;
#X connect 3 0 12 2;
#X connect 8 0 1 0;
#X connect 12 0 8 0;
#X connect 12 1 17 0;
#X connect 12 2 14 0;
#X connect 12 3 16 1;
#X connect 12 3 17 1;
#X connect 14 0 16 0;
#X connect 14 1 15 0;
#X connect 15 0 4 0;
#X connect 16 0 4 0;
#X connect 17 0 18 0;
#X restore 45 216 pd gen;
#X obj 46 248 outlet;
#X obj 191 187 cnv 15 100 60 empty empty dyn 5 12 0 14 -233017 -66577
0;
#N canvas 356 212 753 480 \$0-dyn 0;
#X obj 10 5 inlet;
#X obj 200 5 inlet;
#X restore 197 213 pd \$0-dyn;
#X obj 190 39 inlet;
#N canvas 0 23 225 188 args 0;
#X obj 44 24 inlet;
#X obj 45 129 outlet;
#X obj 45 93 list prepend -1;
#X obj 45 64 route all;
#X connect 0 0 3 0;
#X connect 2 0 1 0;
#X connect 3 0 2 0;
#X connect 3 1 1 0;
#X restore 191 90 pd args;
#X obj 45 88 route set;
#X obj 45 112 t b a;
#X msg 98 216 reset;
#X connect 0 0 7 0;
#X connect 1 0 2 0;
#X connect 1 1 4 0;
#X connect 5 0 6 0;
#X connect 6 0 4 1;
#X connect 7 0 8 0;
#X connect 7 1 1 0;
#X connect 8 0 1 0;
#X connect 8 1 1 1;
#X connect 9 0 1 0;
