#N canvas 274 92 398 404 12;
#X obj 75 32 inlet~;
#X obj 75 62 tabsend~ \$0-mc-args;
#X obj 74 133 bang~;
#X obj 74 159 array get \$0-mc-args 0 2;
#X obj 73 349 outlet;
#X obj 74 85 array define \$0-mc-args 2;
#X text 77 321 id channels;
#N canvas 0 23 450 300 msg 0;
#X obj 64 28 inlet;
#X obj 64 220 outlet;
#X obj 174 94 cnv 15 100 60 empty empty dyn 5 12 0 14 -233017 -66577
0;
#N canvas 734 144 450 300 \$0-dyn 0;
#X obj 11 3 outlet;
#X restore 192 123 pd \$0-dyn;
#N canvas 366 35 783 649 gen 0;
#X text 297 251 erase;
#X obj 49 48 inlet;
#X msg 287 274 vis 1 \, editmode 1 \, mouse 0 30 0 0 \, mouseup 10000
10000 0 \, cut \, editmode 0 \, vis 0;
#X obj 288 44 inlet;
#X obj 48 152 change;
#X text 287 24 reset;
#X text 47 26 id;
#X obj 286 507 s pd-\$0-dyn;
#X obj 53 504 outlet;
#X obj 48 177 t f f b;
#X msg 110 373 obj 50 60 receive \$1-mc-msg \, connect 1 0 0 0 \, dirty
0;
#X connect 1 0 4 0;
#X connect 2 0 7 0;
#X connect 3 0 2 0;
#X connect 4 0 9 0;
#X connect 9 0 8 0;
#X connect 9 1 10 0;
#X connect 9 2 2 0;
#X connect 10 0 7 0;
#X restore 64 121 pd gen;
#X obj 117 123 bng 15 250 50 0 empty empty reset 17 7 0 10 -261234
-1 -1;
#X text 192 146 channels;
#X obj 64 195 list prepend;
#X floatatom 65 164 5 0 0 0 - - -;
#X floatatom 192 166 5 0 0 0 - - -;
#X connect 0 0 4 0;
#X connect 3 0 7 0;
#X connect 3 0 9 0;
#X connect 4 0 7 1;
#X connect 4 0 8 0;
#X connect 5 0 4 1;
#X connect 7 0 1 0;
#X restore 160 228 pd msg;
#X obj 74 186 t a f;
#X obj 191 277 array set \$0-mc-args;
#X obj 159 252 t a a;
#X text 158 209 id;
#N canvas 0 23 430 450 _chk 0;
#X obj 47 29 inlet;
#X obj 263 389 outlet;
#N canvas 217 355 450 300 bang~cnt 0;
#X obj 62 29 inlet;
#X msg 154 56 0;
#X obj 62 107 f;
#X obj 100 106 + 1;
#X obj 155 29 bang~;
#X obj 61 171 outlet;
#X connect 0 0 2 0;
#X connect 1 0 2 1;
#X connect 2 0 3 0;
#X connect 2 0 5 0;
#X connect 3 0 2 1;
#X connect 4 0 1 0;
#X restore 301 252 pd bang~cnt;
#X obj 299 295 <= 1;
#X obj 100 304 == 0;
#X obj 265 329 spigot 1;
#X obj 45 328 spigot 0;
#N canvas 426 292 450 339 new? 0;
#X obj 63 28 inlet;
#X obj 62 291 outlet;
#X obj 156 291 outlet;
#X obj 64 67 unpack f f;
#X obj 66 131 != -1;
#X obj 157 131 != -1;
#X obj 62 259 f;
#X obj 62 220 t b b;
#X obj 157 261 f;
#X obj 65 187 sel 0;
#X obj 65 163 ||;
#X text 70 49 ID;
#X text 120 48 channels;
#X obj 131 94 t f f f;
#X obj 64 94 t f f f;
#X connect 0 0 3 0;
#X connect 3 0 14 0;
#X connect 3 1 13 0;
#X connect 4 0 10 0;
#X connect 5 0 10 1;
#X connect 6 0 1 0;
#X connect 7 0 6 0;
#X connect 7 1 8 0;
#X connect 8 0 2 0;
#X connect 9 1 7 0;
#X connect 10 0 9 0;
#X connect 13 0 5 1;
#X connect 13 1 5 0;
#X connect 13 2 8 1;
#X connect 14 0 4 1;
#X connect 14 1 4 0;
#X connect 14 2 6 1;
#X restore 46 80 pd new?;
#X obj 244 222 t b f b;
#X obj 264 361 pack f f;
#X floatatom 45 120 5 0 0 0 - - -;
#X floatatom 90 120 5 0 0 0 - - -;
#X obj 44 388 print mc._in: Multiple ins;
#X connect 0 0 7 0;
#X connect 3 0 4 0;
#X connect 3 0 5 1;
#X connect 4 0 6 1;
#X connect 5 0 9 0;
#X connect 6 0 12 0;
#X connect 7 0 8 0;
#X connect 7 0 10 0;
#X connect 7 1 9 1;
#X connect 7 1 11 0;
#X connect 8 0 6 0;
#X connect 8 1 5 0;
#X connect 8 2 2 0;
#X connect 9 0 1 0;
#X restore 73 296 pd _chk;
#X connect 0 0 1 0;
#X connect 2 0 3 0;
#X connect 3 0 8 0;
#X connect 7 0 10 0;
#X connect 8 0 12 0;
#X connect 8 1 7 0;
#X connect 10 0 12 0;
#X connect 10 1 9 0;
#X connect 12 0 4 0;
