#N canvas 280 209 318 281 12;
#X obj 37 236 outlet~;
#X obj 38 26 inlet;
#X obj 95 26 loadbang;
#X obj 95 49 pack \$1 \$2;
#X obj 38 132 array set \$0-out;
#X obj 37 158 array define \$0-out 2;
#X obj 37 202 tabreceive~ \$0-out;
#X obj 38 82 t a a;
#X obj 227 133 unpack;
#X floatatom 228 160 5 0 0 0 - - -;
#X floatatom 271 160 5 0 0 0 - - -;
#N canvas 362 153 255 287 msg 0;
#X obj 68 34 inlet;
#X obj 68 69 unpack f f;
#X obj 68 101 swap;
#X obj 50 192 cnv 15 100 60 empty empty dyn 5 12 0 14 -233017 -66577
0;
#N canvas 734 144 450 300 \$0-dyn 0;
#X obj 11 3 inlet;
#X restore 68 221 pd \$0-dyn;
#N canvas 133 39 630 383 gen 0;
#X text 175 192 erase;
#X obj 49 48 inlet;
#X msg 165 215 vis 1 \, editmode 1 \, mouse 0 30 0 0 \, mouseup 10000
10000 0 \, cut \, editmode 0 \, vis 0;
#X obj 163 46 inlet;
#X text 162 26 reset;
#X text 47 26 id;
#X obj 160 320 s pd-\$0-dyn;
#X obj 51 116 t f b;
#X msg 51 263 obj 50 60 send \$1-mc-msg \, connect 0 0 1 0;
#X obj 51 91 change;
#X connect 1 0 9 0;
#X connect 2 0 6 0;
#X connect 3 0 2 0;
#X connect 7 0 8 0;
#X connect 7 1 2 0;
#X connect 8 0 6 0;
#X connect 9 0 7 0;
#X restore 93 155 pd gen;
#X obj 146 157 bng 15 250 50 0 empty empty reset 17 7 0 10 -261234
-1 -1;
#X text 95 137 in;
#X text 81 203 channels;
#X connect 0 0 1 0;
#X connect 1 0 2 0;
#X connect 1 1 2 1;
#X connect 2 0 4 0;
#X connect 2 1 5 0;
#X connect 6 0 5 1;
#X restore 98 83 pd msg;
#X connect 1 0 7 0;
#X connect 2 0 3 0;
#X connect 3 0 7 0;
#X connect 6 0 0 0;
#X connect 7 0 4 0;
#X connect 7 1 8 0;
#X connect 7 1 11 0;
#X connect 8 0 9 0;
#X connect 8 1 10 0;
