#N canvas 0 23 250 243 12;
#X obj 38 187 outlet;
#X obj 38 160 list trim;
#X obj 38 66 t b;
#X obj 78 66 bang~;
#X obj 38 39 mc._dsp;
#X obj 154 39 inlet;
#X obj 38 132 list prepend mc;
#X obj 38 104 list append \$1 \$2;
#X connect 1 0 0 0;
#X connect 2 0 7 0;
#X connect 3 0 7 0;
#X connect 4 0 2 0;
#X connect 5 0 7 1;
#X connect 6 0 1 0;
#X connect 7 0 6 0;
