#N canvas 113 114 338 351 12;
#N canvas 225 31 1006 739 gen 0;
#X text 470 236 erase;
#X text 171 310 index;
#X obj 644 460 * 25;
#X text 682 481 y;
#X obj 52 695 outlet;
#X obj 49 23 inlet;
#X obj 50 195 mc._gen \$0-dyn;
#X obj 165 167 r \$0-dyn;
#X obj 481 701 s \$0-dyn;
#X obj 49 87 t b s;
#X msg 473 255 vis 1 \, editmode 1 \, mouse 0 30 0 0 \, mouseup 10000
10000 0 \, cut \, editmode 0 \, vis 0;
#X obj 302 23 inlet;
#X obj 116 99 +;
#X text 345 42 right inlet always precedes left inlet;
#X obj 50 151 f;
#X text 21 170 total channels;
#X obj 644 483 + 30;
#X obj 380 431 moses;
#X text 301 549 receive~;
#X text 302 563 send~;
#X obj 217 550 expr $i1*2 \; $i1*2+1;
#X obj 217 592 pack 0 0;
#X msg 217 616 connect \$1 0 \$2 0;
#X obj 217 310 t f f f, f 17;
#X obj 380 456 t f b f;
#X obj 494 455 t f b f;
#X obj 549 484 -;
#X obj 437 400 t f f;
#X obj 49 64 unpack f f;
#X obj 302 64 unpack f f;
#X obj 380 546 pack f \$0 f f f;
#X obj 410 486 f;
#X obj 496 484 f;
#X msg 380 571 obj 10 \$3 receive~ \$4-mc-\$5 \, obj 500 \$3 send~
\$2-mc-\$1;
#X text 93 25 symbol mc-id channels;
#X text 346 25 symbol mc-id channels;
#X obj 51 656 list prepend \$0;
#X connect 2 0 16 0;
#X connect 5 0 28 0;
#X connect 6 0 36 0;
#X connect 6 1 23 0;
#X connect 6 2 10 0;
#X connect 7 0 6 1;
#X connect 9 0 14 0;
#X connect 9 1 31 1;
#X connect 10 0 8 0;
#X connect 11 0 29 0;
#X connect 12 0 14 1;
#X connect 14 0 6 0;
#X connect 16 0 30 2;
#X connect 17 0 24 0;
#X connect 17 1 25 0;
#X connect 20 0 21 0;
#X connect 20 1 21 1;
#X connect 21 0 22 0;
#X connect 22 0 8 0;
#X connect 23 0 20 0;
#X connect 23 1 17 0;
#X connect 23 2 2 0;
#X connect 24 0 30 0;
#X connect 24 1 31 0;
#X connect 24 2 30 4;
#X connect 25 0 30 0;
#X connect 25 1 32 0;
#X connect 25 2 26 0;
#X connect 26 0 30 4;
#X connect 27 0 17 1;
#X connect 27 1 26 1;
#X connect 28 0 9 0;
#X connect 28 1 12 0;
#X connect 28 1 27 0;
#X connect 29 0 32 1;
#X connect 29 1 12 1;
#X connect 30 0 33 0;
#X connect 31 0 30 3;
#X connect 32 0 30 3;
#X connect 33 0 8 0;
#X connect 36 0 4 0;
#X restore 45 178 pd gen;
#X obj 171 124 cnv 15 100 60 empty empty dyn 5 12 0 14 -233017 -66577
0;
#N canvas 113 148 753 480 \$0-dyn 0;
#X restore 177 150 pd \$0-dyn;
#N canvas 59 402 442 286 sync 0;
#X obj 34 190 list;
#X obj 37 25 inlet;
#X obj 236 24 inlet;
#X obj 35 221 outlet;
#X obj 268 222 outlet;
#X obj 236 54 route bang;
#X obj 37 56 route bang;
#X obj 37 122 t b a;
#X obj 236 120 t b a;
#X obj 37 82 list append 0 0;
#X obj 236 83 list append 0 0;
#X connect 0 0 3 0;
#X connect 1 0 6 0;
#X connect 2 0 5 0;
#X connect 5 0 10 0;
#X connect 5 1 8 0;
#X connect 6 0 9 0;
#X connect 6 1 7 0;
#X connect 7 0 0 0;
#X connect 7 1 0 1;
#X connect 8 0 0 0;
#X connect 8 1 4 0;
#X connect 9 0 7 0;
#X connect 10 0 8 0;
#X restore 44 111 pd sync;
#X obj 47 40 inlet;
#X obj 107 39 inlet;
#X obj 43 297 outlet;
#X text 52 197 channels;
#X connect 0 0 6 0;
#X connect 3 0 0 0;
#X connect 3 1 0 1;
#X connect 4 0 3 0;
#X connect 5 0 3 1;
