#N canvas 0 23 435 232 12;
#X obj 33 62 inlet;
#X obj 33 179 outlet;
#X obj 33 91 unpack f f;
#X obj 137 180 outlet;
#X obj 33 122 expr ($i1+$i2)*1e-10 \; ($i1-$i2)*1e+10;
#X text 32 14 Calculate two check floats from id and channel count
;
#X text 194 111 Check floats should be extremely;
#X text 194 128 unlikely to appear in sequence;
#X text 193 145 in a signal vector;
#X connect 0 0 2 0;
#X connect 2 0 4 0;
#X connect 2 1 4 1;
#X connect 4 0 1 0;
#X connect 4 1 3 0;
