#N canvas 1 23 480 454 12;
#X obj 64 32 inlet;
#X obj 282 382 outlet;
#X obj 62 382 print mc._chk: Multiple ins;
#N canvas 217 355 450 300 bang~cnt 0;
#X obj 62 29 inlet;
#X msg 154 56 0;
#X obj 62 107 f;
#X obj 100 106 + 1;
#X obj 155 29 bang~;
#X obj 61 171 outlet;
#X connect 0 0 2 0;
#X connect 1 0 2 1;
#X connect 2 0 3 0;
#X connect 2 0 5 0;
#X connect 3 0 2 1;
#X connect 4 0 1 0;
#X restore 319 246 pd bang~cnt;
#X obj 317 289 <= 1;
#X obj 118 298 == 0;
#X obj 283 323 spigot 1;
#X obj 63 322 spigot 0;
#N canvas 426 292 450 339 new? 0;
#X obj 63 28 inlet;
#X obj 62 291 outlet;
#X obj 156 291 outlet;
#X obj 64 67 unpack f f;
#X obj 66 131 != -1;
#X obj 157 131 != -1;
#X obj 62 259 f;
#X obj 62 220 t b b;
#X obj 157 261 f;
#X obj 65 187 sel 0;
#X obj 65 163 ||;
#X text 70 49 ID;
#X text 120 48 channels;
#X obj 131 94 t f f f;
#X obj 64 94 t f f f;
#X connect 0 0 3 0;
#X connect 3 0 14 0;
#X connect 3 1 13 0;
#X connect 4 0 10 0;
#X connect 5 0 10 1;
#X connect 6 0 1 0;
#X connect 7 0 6 0;
#X connect 7 1 8 0;
#X connect 8 0 2 0;
#X connect 9 1 7 0;
#X connect 10 0 9 0;
#X connect 13 0 5 1;
#X connect 13 1 5 0;
#X connect 13 2 8 1;
#X connect 14 0 4 1;
#X connect 14 1 4 0;
#X connect 14 2 6 1;
#X restore 64 74 pd new?;
#X obj 262 216 t b f b;
#X obj 282 355 pack f f;
#X floatatom 63 114 5 0 0 0 - - -;
#X floatatom 108 114 5 0 0 0 - - -;
#X connect 0 0 8 0;
#X connect 4 0 5 0;
#X connect 4 0 6 1;
#X connect 5 0 7 1;
#X connect 6 0 10 0;
#X connect 7 0 2 0;
#X connect 8 0 9 0;
#X connect 8 0 11 0;
#X connect 8 1 10 1;
#X connect 8 1 12 0;
#X connect 9 0 7 0;
#X connect 9 1 6 0;
#X connect 9 2 3 0;
#X connect 10 0 1 0;
