#N canvas 274 92 398 404 12;
#X obj 75 32 inlet~;
#X obj 75 62 tabsend~ \$0-mc-args;
#X obj 74 133 bang~;
#X obj 74 159 array get \$0-mc-args 0 2;
#X obj 73 349 outlet;
#X obj 74 85 array define \$0-mc-args 2;
#X obj 73 299 mc._chk;
#X text 77 321 id channels;
#N canvas 0 23 450 300 msg 0;
#X obj 64 28 inlet;
#X obj 64 220 outlet;
#X obj 174 94 cnv 15 100 60 empty empty dyn 5 12 0 14 -233017 -66577
0;
#N canvas 734 144 450 300 \$0-dyn 0;
#X obj 11 3 outlet;
#X restore 192 123 pd \$0-dyn;
#N canvas 366 35 783 649 gen 0;
#X text 297 251 erase;
#X obj 49 48 inlet;
#X msg 287 274 vis 1 \, editmode 1 \, mouse 0 30 0 0 \, mouseup 10000
10000 0 \, cut \, editmode 0 \, vis 0;
#X obj 288 44 inlet;
#X obj 48 152 change;
#X text 287 24 reset;
#X text 47 26 id;
#X obj 286 507 s pd-\$0-dyn;
#X obj 53 504 outlet;
#X obj 48 177 t f f b;
#X msg 110 373 obj 50 60 receive \$1-mc-msg \, connect 1 0 0 0 \, dirty
0;
#X connect 1 0 4 0;
#X connect 2 0 7 0;
#X connect 3 0 2 0;
#X connect 4 0 9 0;
#X connect 9 0 8 0;
#X connect 9 1 10 0;
#X connect 9 2 2 0;
#X connect 10 0 7 0;
#X restore 64 121 pd gen;
#X obj 117 123 bng 15 250 50 0 empty empty reset 17 7 0 10 -261234
-1 -1;
#X text 192 146 channels;
#X obj 64 195 list prepend;
#X floatatom 65 164 5 0 0 0 - - -;
#X floatatom 192 166 5 0 0 0 - - -;
#X connect 0 0 4 0;
#X connect 3 0 7 0;
#X connect 3 0 9 0;
#X connect 4 0 7 1;
#X connect 4 0 8 0;
#X connect 5 0 4 1;
#X connect 7 0 1 0;
#X restore 160 228 pd msg;
#X obj 74 186 t a f;
#X obj 191 277 array set \$0-mc-args;
#X obj 159 252 t a a;
#X text 158 209 id;
#X connect 0 0 1 0;
#X connect 2 0 3 0;
#X connect 3 0 9 0;
#X connect 6 0 4 0;
#X connect 8 0 11 0;
#X connect 9 0 6 0;
#X connect 9 1 8 0;
#X connect 11 0 6 0;
#X connect 11 1 10 0;
