#N canvas 432 423 496 225 12;
#X obj 36 30 inlet~ fwd;
#X obj 36 167 outlet~;
#X obj 102 54 route op;
#X obj 102 78 list trim;
#N canvas 483 255 450 300 \$0-dyn 0;
#X obj 4 2 inlet~;
#X obj 54 2 inlet;
#X obj 97 2 outlet~;
#X restore 36 137 pd \$0-dyn;
#N canvas 605 269 592 345 gen 0;
#X text 149 112 erase;
#X obj 49 48 inlet;
#X msg 139 135 vis 1 \, editmode 1 \, mouse 0 30 0 0 \, mouseup 10000
10000 0 \, cut \, editmode 0 \, vis 0;
#X obj 140 49 inlet;
#X text 139 29 reset;
#X obj 73 268 s pd-\$0-dyn;
#X text 47 26 obj args...;
#X obj 49 111 t b a b;
#X msg 49 225 connect 0 0 3 0 \, connect 1 0 3 1 \, connect 3 0 2 0
\, dirty 0;
#X obj 73 178 list prepend obj 50 60;
#X obj 73 200 list trim;
#X connect 1 0 7 0;
#X connect 2 0 5 0;
#X connect 3 0 2 0;
#X connect 7 0 8 0;
#X connect 7 1 9 0;
#X connect 7 2 2 0;
#X connect 8 0 5 0;
#X connect 9 0 10 0;
#X connect 10 0 5 0;
#X restore 219 137 pd gen;
#X obj 271 140 bng 15 250 50 0 empty empty reset 17 7 0 10 -261234
-1 -1;
#X obj 219 34 loadbang;
#X obj 219 80 pdcontrol;
#X msg 219 57 args 0;
#X obj 202 108 list split 1;
#X text 301 107 don't use the channel id;
#X connect 0 0 4 0;
#X connect 0 1 2 0;
#X connect 2 0 3 0;
#X connect 3 0 4 1;
#X connect 4 0 1 0;
#X connect 6 0 5 1;
#X connect 7 0 9 0;
#X connect 8 0 10 0;
#X connect 9 0 8 0;
#X connect 10 1 5 0;
