#N canvas 121 23 615 300 12;
#X obj 44 38 inlet;
#X obj 298 39 loadbang;
#N canvas 212 78 1050 656 gen 0;
#X obj 323 37 inlet;
#X text 608 241 erase;
#X text 314 307 index;
#X obj 434 355 * 25;
#X text 473 377 y;
#X obj 50 611 outlet;
#X obj 49 23 inlet;
#X obj 49 260 mc._gen \$0-dyn;
#X obj 200 29 r \$0-dyn;
#X obj 603 609 s \$0-dyn;
#X obj 317 326 t f b f f, f 17;
#N canvas 629 436 394 240 connections 0;
#X obj 63 26 inlet;
#X text 109 24 index;
#X text 159 62 receive~;
#X obj 63 168 outlet;
#X obj 63 110 pack 0 0;
#X msg 63 138 connect 1 \$2 \$1 0;
#X obj 63 63 expr $i1+2 \; $i1 \;;
#X connect 0 0 6 0;
#X connect 4 0 5 0;
#X connect 5 0 3 0;
#X connect 6 0 4 0;
#X connect 6 1 4 1;
#X restore 321 461 pd connections;
#X obj 434 378 + 60;
#X msg 608 262 vis 1 \, editmode 1 \, mouse 0 30 0 0 \, mouseup 10000
10000 0 \, cut \, editmode 0 \, vis 0;
#X obj 50 585 list prepend \$0;
#X obj 50 107 unpack f f;
#X obj 382 408 pack f \$0 f f;
#X obj 604 38 inlet;
#X text 603 20 reset;
#X text 322 18 indexes;
#X text 42 90 mc-id channels;
#X obj 81 319 list;
#X text 103 470 i;
#X text 57 354 ix;
#X obj 233 417 * 25;
#X text 271 438 y;
#X obj 233 440 + 60;
#X obj 191 416 +;
#N canvas 294 82 450 300 listiter 0;
#X obj 56 40 t a a;
#X obj 56 64 list length;
#X obj 57 112 mc._cnt;
#X obj 56 164 list;
#X obj 58 137 t b f;
#X obj 56 15 inlet;
#X obj 56 252 outlet;
#X obj 140 255 outlet;
#X obj 56 190 list split;
#X obj 56 221 list split 1;
#X obj 221 254 outlet;
#X obj 56 89 t a a;
#X text 54 272 content;
#X text 143 273 ix;
#X text 221 275 length;
#X connect 0 0 1 0;
#X connect 0 1 3 1;
#X connect 1 0 11 0;
#X connect 2 0 4 0;
#X connect 3 0 8 0;
#X connect 4 0 3 0;
#X connect 4 1 7 0;
#X connect 4 1 8 1;
#X connect 5 0 0 0;
#X connect 8 1 9 0;
#X connect 9 0 6 0;
#X connect 11 0 2 0;
#X connect 11 1 10 0;
#X restore 82 349 pd listiter;
#N canvas 0 23 421 295 accum 0;
#X obj 52 23 inlet;
#X obj 51 242 outlet;
#X obj 174 176 t a;
#X obj 52 50 t b a b, f 17;
#X obj 51 208 list;
#X msg 121 114 0;
#X obj 74 113 until;
#X obj 74 145 f;
#X obj 107 146 + 1;
#X obj 74 176 list prepend;
#X connect 0 0 3 0;
#X connect 2 0 9 1;
#X connect 3 0 4 0;
#X connect 3 1 6 0;
#X connect 3 2 5 0;
#X connect 3 2 9 1;
#X connect 4 0 1 0;
#X connect 5 0 7 1;
#X connect 6 0 7 0;
#X connect 7 0 8 0;
#X connect 7 0 9 0;
#X connect 8 0 7 1;
#X connect 9 0 4 1;
#X connect 9 0 2 0;
#X restore 544 313 pd accum;
#X obj 192 441 + 2;
#X obj 520 265 t b f b;
#X msg 519 374 connect 0 0 1 0;
#X obj 543 337 list prepend obj 10 30 route;
#X obj 50 70 list;
#X obj 116 70 t b a;
#X obj 49 47 route bang;
#X obj 49 408 f;
#X msg 382 433 obj 10 \$3 receive~ \$2-dummy;
#X obj 157 441 + 2;
#X obj 49 288 t b b;
#X obj 84 490 pack 0 0 \$0 0 0 0 0;
#X obj 204 121 list length;
#X obj 323 64 t b a a;
#X obj 186 607 outlet;
#X msg 186 583 \$2 set \$7-mc-\$1;
#X msg 304 542 obj 500 \$6 send~ \$3-mc-\$2 \, connect \$4 0 \$5 0
;
#X obj 85 513 t a a;
#X obj 50 131 f;
#N canvas 352 53 372 267 changed 0;
#X obj 61 30 inlet;
#X obj 61 73 f;
#X obj 129 30 inlet;
#X obj 62 185 outlet;
#X obj 125 184 outlet;
#X obj 61 97 t f f f;
#X obj 124 156 != 0;
#X text 57 206 value;
#X text 121 208 has changed?;
#X connect 0 0 1 0;
#X connect 1 0 5 0;
#X connect 2 0 1 1;
#X connect 5 0 3 0;
#X connect 5 1 6 1;
#X connect 5 2 6 0;
#X connect 6 0 4 0;
#X restore 49 232 pd changed;
#X obj 519 242 spigot;
#X obj 318 287 spigot;
#X obj 302 517 spigot;
#X obj 49 204 t b f b;
#X obj 36 162 select 0;
#X text 96 162 filter id 0;
#X connect 0 0 43 0;
#X connect 3 0 12 0;
#X connect 6 0 36 0;
#X connect 7 0 40 0;
#X connect 7 1 51 0;
#X connect 7 2 27 1;
#X connect 7 2 50 0;
#X connect 8 0 7 1;
#X connect 10 0 11 0;
#X connect 10 2 16 0;
#X connect 10 3 3 0;
#X connect 11 0 9 0;
#X connect 12 0 16 2;
#X connect 13 0 9 0;
#X connect 14 0 5 0;
#X connect 15 0 48 0;
#X connect 16 0 38 0;
#X connect 17 0 13 0;
#X connect 21 0 28 0;
#X connect 24 0 26 0;
#X connect 26 0 41 5;
#X connect 27 0 30 0;
#X connect 28 0 41 0;
#X connect 28 1 24 0;
#X connect 28 1 27 0;
#X connect 28 1 39 0;
#X connect 28 1 41 1;
#X connect 28 2 37 1;
#X connect 29 0 33 0;
#X connect 30 0 41 4;
#X connect 31 0 32 0;
#X connect 31 1 29 0;
#X connect 31 2 13 0;
#X connect 32 0 9 0;
#X connect 33 0 9 0;
#X connect 34 0 15 0;
#X connect 35 0 34 0;
#X connect 35 1 34 1;
#X connect 36 0 34 0;
#X connect 36 1 35 0;
#X connect 37 0 14 0;
#X connect 38 0 9 0;
#X connect 39 0 41 3;
#X connect 40 0 37 0;
#X connect 40 1 21 0;
#X connect 41 0 47 0;
#X connect 42 0 49 1;
#X connect 43 0 48 0;
#X connect 43 1 42 0;
#X connect 43 2 21 1;
#X connect 45 0 44 0;
#X connect 46 0 9 0;
#X connect 47 0 45 0;
#X connect 47 1 52 0;
#X connect 48 0 54 0;
#X connect 49 0 7 0;
#X connect 49 1 50 1;
#X connect 49 1 51 1;
#X connect 49 1 52 1;
#X connect 50 0 31 0;
#X connect 51 0 10 0;
#X connect 52 0 46 0;
#X connect 53 0 49 0;
#X connect 53 1 16 3;
#X connect 53 1 41 6;
#X connect 54 1 53 0;
#X restore 45 150 pd gen;
#X obj 298 88 pdcontrol;
#X obj 46 223 outlet;
#X obj 216 160 cnv 15 100 60 empty empty dyn 5 12 0 14 -233017 -66577
0;
#N canvas 329 208 753 480 \$0-dyn 0;
#X obj 10 5 inlet;
#X restore 222 193 pd \$0-dyn;
#X obj 125 38 inlet;
#X msg 298 65 args 1;
#X text 370 91 arguments of parent patch;
#X text 364 37 arguments: abs [options];
#X obj 125 62 t b a;
#X obj 96 152 bng 15 250 50 0 empty empty reset 17 7 0 10 -261234 -1
-1;
#X obj 381 167 s~ \$0-dummy;
#X connect 0 0 2 0;
#X connect 1 0 8 0;
#X connect 2 0 4 0;
#X connect 2 1 6 0;
#X connect 3 0 2 1;
#X connect 7 0 11 0;
#X connect 8 0 3 0;
#X connect 11 0 2 0;
#X connect 11 1 2 1;
#X connect 12 0 2 2;
