#N canvas 201 434 323 164 12;
#X obj 36 30 inlet~ fwd;
#X obj 36 131 outlet~;
#X obj 36 105 \$1 \$2;
#X obj 102 54 route op;
#X obj 102 78 list trim;
#X connect 0 0 2 0;
#X connect 0 1 3 0;
#X connect 2 0 1 0;
#X connect 3 0 4 0;
#X connect 4 0 2 1;
