#N canvas 0 23 387 330 12;
#X obj 40 48 inlet;
#X obj 39 267 outlet;
#X obj 162 201 t a;
#X obj 40 75 t b a b, f 17;
#X obj 39 233 list;
#X msg 109 139 0;
#X obj 62 138 until;
#X obj 62 170 f;
#X obj 95 171 + 1;
#X obj 62 201 list prepend;
#X text 40 15 Generate list 0....input-1;
#X connect 0 0 3 0;
#X connect 2 0 9 1;
#X connect 3 0 4 0;
#X connect 3 1 6 0;
#X connect 3 2 5 0;
#X connect 3 2 9 1;
#X connect 4 0 1 0;
#X connect 5 0 7 1;
#X connect 6 0 7 0;
#X connect 7 0 8 0;
#X connect 7 0 9 0;
#X connect 8 0 7 1;
#X connect 9 0 4 1;
#X connect 9 0 2 0;
