#N canvas 191 216 600 326 12;
#X obj 44 38 inlet;
#X obj 298 39 loadbang;
#N canvas 12 23 1009 750 gen 0;
#X obj 323 37 inlet;
#X obj 138 445 list append;
#X text 527 276 erase;
#X text 89 292 index;
#X obj 52 695 outlet;
#X obj 49 23 inlet;
#N canvas 0 23 421 295 accum 0;
#X obj 52 23 inlet;
#X obj 51 242 outlet;
#X obj 174 176 t a;
#X obj 52 50 t b a b, f 17;
#X obj 51 208 list;
#X msg 121 114 0;
#X obj 74 113 until;
#X obj 74 145 f;
#X obj 107 146 + 1;
#X obj 74 176 list prepend;
#X connect 0 0 3 0;
#X connect 2 0 9 1;
#X connect 3 0 4 0;
#X connect 3 1 6 0;
#X connect 3 2 5 0;
#X connect 3 2 9 1;
#X connect 4 0 1 0;
#X connect 5 0 7 1;
#X connect 6 0 7 0;
#X connect 7 0 8 0;
#X connect 7 0 9 0;
#X connect 8 0 7 1;
#X connect 9 0 4 1;
#X connect 9 0 2 0;
#X restore 483 359 pd accum;
#X obj 50 195 mc._gen \$0-dyn;
#X obj 204 28 r \$0-dyn;
#X obj 481 701 s \$0-dyn;
#N canvas 442 299 533 329 connections 0;
#X obj 63 26 inlet;
#X text 109 24 index;
#X obj 62 271 outlet;
#X obj 63 131 pack 0 0 0 0;
#X text 203 61 receive~;
#X text 206 76 abs;
#X text 205 91 list prepend #ix;
#X obj 376 26 inlet;
#X obj 62 158 t a a;
#X obj 128 157 spigot;
#X msg 62 189 connect 3 \$4 \$1 0 \, connect \$1 0 \$2 0 \, connect
1 0 \$2 0;
#X msg 128 215 connect \$2 0 \$3 0 \, connect \$3 0 2 0;
#X obj 376 48 != 0;
#X obj 63 63 expr $i1*($i2+2)+5 \; $i1*($i2+2)+4 \; $i1*($i2+2)+6 \;
$i1 \;;
#X connect 0 0 13 0;
#X connect 3 0 8 0;
#X connect 7 0 12 0;
#X connect 8 0 10 0;
#X connect 8 1 9 0;
#X connect 9 0 11 0;
#X connect 10 0 2 0;
#X connect 11 0 2 0;
#X connect 12 0 9 1;
#X connect 12 0 13 1;
#X connect 13 0 3 0;
#X connect 13 1 3 1;
#X connect 13 2 3 2;
#X connect 13 3 3 3;
#X restore 94 630 pd connections;
#X msg 521 296 vis 1 \, editmode 1 \, mouse 0 30 0 0 \, mouseup 10000
10000 0 \, cut \, editmode 0 \, vis 0;
#X obj 49 149 f;
#X obj 482 404 list prepend obj 10 30 route;
#X text 497 380 list 0 1 2 3 ... n-1;
#X obj 52 669 list prepend \$0;
#X obj 49 83 unpack f f;
#X obj 49 107 t b f;
#X obj 114 501 pack f \$0 f f;
#X text 322 18 (#out) abs options;
#X obj 323 70 route list;
#X obj 271 98 list split 1;
#X text 278 118 #out;
#X obj 381 101 t a b;
#X text 409 142 #out;
#X obj 522 39 inlet;
#X obj 157 351 * 25;
#X obj 157 373 + 60;
#X obj 139 417 pack 200 100;
#X obj 138 469 list prepend obj;
#X obj 97 318 t f f b f;
#X text 60 62 mc-id channels;
#X msg 457 449 connect 0 0 3 0;
#X text 522 18 reset;
#X obj 461 254 t b f b;
#X msg 413 124 0;
#X obj 351 423 t a;
#X obj 114 525 t a a;
#X msg 145 548 obj 10 \$3 receive~ \$4-mc-\$1;
#X msg 113 602 obj 500 \$3 list prepend \$1;
#X obj 112 577 spigot;
#X connect 0 0 20 0;
#X connect 1 0 29 0;
#X connect 5 0 16 0;
#X connect 6 0 13 0;
#X connect 7 0 15 0;
#X connect 7 1 30 0;
#X connect 7 2 34 0;
#X connect 8 0 7 1;
#X connect 10 0 9 0;
#X connect 11 0 9 0;
#X connect 12 0 7 0;
#X connect 13 0 9 0;
#X connect 15 0 4 0;
#X connect 16 0 17 0;
#X connect 16 1 12 1;
#X connect 17 0 12 0;
#X connect 17 1 18 3;
#X connect 18 0 37 0;
#X connect 20 0 21 0;
#X connect 20 1 23 0;
#X connect 21 0 36 0;
#X connect 21 1 1 1;
#X connect 23 0 1 1;
#X connect 23 1 35 0;
#X connect 25 0 11 0;
#X connect 26 0 27 0;
#X connect 27 0 18 2;
#X connect 27 0 28 1;
#X connect 28 0 1 0;
#X connect 29 0 9 0;
#X connect 30 0 10 0;
#X connect 30 1 18 0;
#X connect 30 2 28 0;
#X connect 30 3 26 0;
#X connect 32 0 9 0;
#X connect 34 0 32 0;
#X connect 34 1 6 0;
#X connect 34 2 11 0;
#X connect 35 0 36 0;
#X connect 36 0 10 1;
#X connect 36 0 40 1;
#X connect 37 0 40 0;
#X connect 37 1 38 0;
#X connect 38 0 9 0;
#X connect 39 0 9 0;
#X connect 40 0 39 0;
#X restore 45 216 pd gen;
#X obj 298 88 pdcontrol;
#X obj 46 279 outlet;
#X obj 214 188 cnv 15 100 60 empty empty dyn 5 12 0 14 -233017 -66577
0;
#N canvas 527 23 753 480 \$0-dyn 0;
#X obj 10 5 inlet;
#X obj 200 5 inlet;
#X obj 533 4 outlet;
#X restore 220 214 pd \$0-dyn;
#X obj 150 38 inlet;
#X text 212 271 TODO: set receive~s on unchanged signal count;
#X msg 298 65 args 1;
#X text 370 91 arguments of parent patch;
#X obj 45 88 route set;
#X obj 45 112 t b a;
#X obj 99 220 bng 15 250 50 0 empty empty reset 17 7 0 10 -261234 -1
-1;
#X text 364 37 arguments: (#outlet) abs [options];
#X connect 0 0 11 0;
#X connect 1 0 9 0;
#X connect 3 0 2 1;
#X connect 6 0 4 0;
#X connect 7 0 6 1;
#X connect 9 0 3 0;
#X connect 11 0 12 0;
#X connect 11 1 2 0;
#X connect 12 0 2 0;
#X connect 12 1 2 1;
#X connect 13 0 2 2;
