#N canvas 392 145 513 430 12;
#X obj 45 45 inlet;
#X text 43 24 count;
#X obj 313 152 mc._cnt;
#X obj 176 353 mc._fwd;
#X text 48 373 post;
#X text 321 359 index;
#X text 387 359 pre;
#X obj 49 350 outlet;
#X obj 321 339 outlet;
#X obj 385 339 outlet;
#X obj 174 43 inlet;
#X obj 176 318 list prepend pd-\$1;
#X text 172 23 msg to dyn patcher;
#X msg 123 260 dirty 0 \, loadbang;
#X obj 45 84 t f b f f, f 48;
#X connect 0 0 14 0;
#X connect 2 0 8 0;
#X connect 10 0 11 0;
#X connect 11 0 3 0;
#X connect 13 0 11 0;
#X connect 14 0 7 0;
#X connect 14 1 13 0;
#X connect 14 2 2 0;
#X connect 14 3 9 0;
