#N canvas 0 23 400 406 12;
#X obj 191 26 inlet;
#X text 189 6 count;
#X obj 44 25 inlet;
#X obj 46 349 outlet;
#X obj 86 202 moses;
#X obj 44 172 t f f;
#X obj 45 297 pack 0 s;
#X msg 46 323 \$1 set \$2;
#X obj 206 228 t b;
#X obj 44 49 unpack f f;
#X obj 44 73 t b f;
#X obj 86 235 pack f f;
#X msg 86 262 symbol \$2-mc-\$1;
#X obj 44 143 mc._cnt;
#X obj 206 262 symbol \$1;
#X obj 44 116 f \$2;
#X connect 0 0 15 1;
#X connect 2 0 9 0;
#X connect 4 0 11 0;
#X connect 4 1 8 0;
#X connect 5 0 6 0;
#X connect 5 1 4 0;
#X connect 6 0 7 0;
#X connect 7 0 3 0;
#X connect 8 0 14 0;
#X connect 9 0 10 0;
#X connect 9 1 4 1;
#X connect 10 0 15 0;
#X connect 10 1 11 1;
#X connect 11 0 12 0;
#X connect 12 0 6 1;
#X connect 13 0 5 0;
#X connect 14 0 6 1;
#X connect 15 0 13 0;
