#N canvas 71 46 606 514 12;
#X obj 43 451 outlet~;
#X obj 44 77 inlet;
#X obj 166 76 loadbang;
#X obj 166 99 pack \$1 \$2;
#X obj 44 327 array set \$0-out;
#X obj 43 423 tabreceive~ \$0-out;
#X obj 44 352 array define \$0-out 4;
#X obj 44 161 t a a;
#X obj 76 184 mc._signature;
#X obj 44 224 pack f f f f;
#X obj 2 2 cnv 15 600 20 empty empty empty 3 8 0 12 -233017 -66577
0;
#X text 11 3 (c)grrrr.org \, gpl v3;
#N canvas 734 144 450 300 \$0-dyn 0;
#X obj 11 3 inlet;
#X restore 277 448 pd \$0-dyn;
#N canvas 133 39 606 293 gen 0;
#X text 173 125 erase;
#X obj 49 48 inlet;
#X msg 163 148 vis 1 \, editmode 1 \, mouse 0 30 0 0 \, mouseup 10000
10000 0 \, cut \, editmode 0 \, vis 0;
#X obj 163 46 inlet;
#X text 162 26 reset;
#X text 47 26 id;
#X obj 163 236 s pd-\$0-dyn;
#X obj 49 101 t f b;
#X obj 49 74 change;
#X msg 49 196 obj 50 60 send \$1-mc-msg \, connect 0 0 1 0 \, dirty
0;
#X connect 1 0 8 0;
#X connect 2 0 6 0;
#X connect 3 0 2 0;
#X connect 7 0 9 0;
#X connect 7 1 2 0;
#X connect 8 0 7 0;
#X connect 9 0 6 0;
#X restore 282 306 pd gen;
#X obj 333 308 bng 15 250 50 0 empty empty reset 17 7 0 10 -261234
-1 -1;
#X obj 44 249 t a a f;
#X text 275 424 and also message;
#X text 42 53 1) Incoming [id channels( data;
#X text 51 140 2) Generate mc signature (check sum);
#X text 279 285 3) Generate sender for id;
#X text 49 306 4) Set array contents;
#X text 41 400 5) Output mc message through signal vector;
#X connect 1 0 7 0;
#X connect 2 0 3 0;
#X connect 3 0 7 0;
#X connect 5 0 0 0;
#X connect 7 0 9 0;
#X connect 7 1 8 0;
#X connect 8 0 9 2;
#X connect 8 1 9 3;
#X connect 9 0 15 0;
#X connect 14 0 13 1;
#X connect 15 0 4 0;
#X connect 15 1 12 0;
#X connect 15 2 13 0;
