#N canvas 458 104 620 279 12;
#X obj 338 35 inlet;
#X obj 40 229 outlet~;
#X obj 134 36 loadbang;
#X obj 134 84 pdcontrol;
#X msg 134 61 args 0;
#X obj 341 80 list split 1;
#X obj 340 140 list append;
#X obj 381 109 list prepend op;
#X obj 134 114 list prepend set _binop;
#X obj 133 139 list trim;
#X obj 40 38 inlet~ fwd;
#X obj 54 72 route set;
#X obj 340 165 list trim;
#X obj 40 196 mc.map;
#X connect 0 0 5 0;
#X connect 2 0 4 0;
#X connect 3 0 8 0;
#X connect 4 0 3 0;
#X connect 5 0 6 0;
#X connect 5 1 7 0;
#X connect 6 0 12 0;
#X connect 7 0 6 1;
#X connect 8 0 9 0;
#X connect 9 0 13 0;
#X connect 10 0 13 0;
#X connect 10 1 11 0;
#X connect 11 0 8 0;
#X connect 12 0 13 1;
#X connect 13 0 1 0;
