#N canvas 0 23 519 304 12;
#X obj 338 35 inlet;
#X obj 134 36 loadbang;
#X obj 134 84 pdcontrol;
#X msg 134 61 args 0;
#X obj 338 66 list split 1;
#X obj 337 126 list append;
#X obj 378 95 list prepend op;
#X obj 134 114 list prepend set _binop;
#X obj 133 139 list trim;
#X obj 39 68 route set;
#X obj 337 151 list trim;
#X obj 40 38 inlet;
#X obj 40 196 mc.map;
#X obj 40 229 outlet;
#X connect 0 0 4 0;
#X connect 1 0 3 0;
#X connect 2 0 7 0;
#X connect 3 0 2 0;
#X connect 4 0 5 0;
#X connect 4 1 6 0;
#X connect 5 0 10 0;
#X connect 6 0 5 1;
#X connect 7 0 8 0;
#X connect 8 0 12 0;
#X connect 9 0 7 0;
#X connect 9 1 12 0;
#X connect 10 0 12 1;
#X connect 11 0 9 0;
#X connect 12 0 13 0;
