#N canvas 223 210 466 267 12;
#X obj 40 125 mc.concat;
#X obj 40 183 mc.nbx~;
#X obj 58 199 mc.nbx~;
#X obj 77 215 mc.nbx~;
#X obj 95 231 mc.nbx~;
#X obj 114 183 mc.nbx~;
#X obj 132 199 mc.nbx~;
#X obj 151 215 mc.nbx~;
#X obj 169 231 mc.nbx~;
#X obj 40 162 mc.unpack~8, f 19;
#X obj 57 36 mc.nbx~;
#X obj 75 52 mc.nbx~;
#X obj 92 68 mc.nbx~;
#X obj 330 20 loadbang;
#X msg 331 43 \; pd dsp 1;
#X obj 40 84 mc.pack~4, f 10;
#X obj 182 35 mc.nbx~;
#X obj 200 51 mc.nbx~;
#X obj 217 67 mc.nbx~;
#X obj 165 83 mc.pack~4, f 10;
#X obj 40 15 osc~ 0.1;
#X obj 165 14 osc~ 0.11;
#X connect 0 0 9 0;
#X connect 9 0 1 0;
#X connect 9 1 2 0;
#X connect 9 2 3 0;
#X connect 9 3 4 0;
#X connect 9 4 5 0;
#X connect 9 5 6 0;
#X connect 9 6 7 0;
#X connect 9 7 8 0;
#X connect 10 0 15 1;
#X connect 11 0 15 2;
#X connect 12 0 15 3;
#X connect 13 0 14 0;
#X connect 15 0 0 0;
#X connect 16 0 19 1;
#X connect 17 0 19 2;
#X connect 18 0 19 3;
#X connect 19 0 0 1;
#X connect 20 0 15 0;
#X connect 21 0 19 0;
