#N canvas 154 292 394 266 12;
#X obj 40 166 mc.snap~;
#X obj 58 182 mc.snap~;
#X obj 40 97 mc.dist~ 8;
#X msg 193 64 set \$1;
#X msg 195 34 1;
#X msg 259 34 8;
#X obj 77 198 mc.snap~;
#X obj 95 214 mc.snap~;
#X obj 114 166 mc.snap~;
#X obj 132 182 mc.snap~;
#X obj 151 198 mc.snap~;
#X obj 169 214 mc.snap~;
#X msg 227 34 4;
#X msg 259 64 0;
#X obj 40 145 mc.unpack~8, f 19;
#X text 193 15 channels;
#X obj 251 148 loadbang;
#X msg 251 170 \; pd dsp 1;
#X obj 40 34 noise~, f 8;
#X connect 2 0 14 0;
#X connect 3 0 2 0;
#X connect 4 0 3 0;
#X connect 5 0 3 0;
#X connect 12 0 3 0;
#X connect 13 0 3 0;
#X connect 14 0 0 0;
#X connect 14 1 1 0;
#X connect 14 2 6 0;
#X connect 14 3 7 0;
#X connect 14 4 8 0;
#X connect 14 5 9 0;
#X connect 14 6 10 0;
#X connect 14 7 11 0;
#X connect 16 0 17 0;
#X connect 18 0 2 0;
