#N canvas 114 168 305 203 12;
#X obj 46 158 outlet~;
#X obj 46 134 mc._out;
#X obj 46 45 inlet~ fwd;
#N canvas 323 173 508 308 _dist 0;
#X obj 231 35 loadbang;
#N canvas 73 55 348 515 gen 0;
#X text 185 195 index;
#X obj 43 463 outlet;
#X obj 43 32 inlet;
#X obj 183 32 r \$0-dyn;
#X obj 244 466 s \$0-dyn;
#X obj 43 437 list prepend \$0;
#X obj 109 197 t f f f;
#X obj 155 231 * 25;
#X obj 155 253 + 60;
#X obj 132 287 pack f \$0 f;
#X msg 132 309 obj 50 \$3 send~ \$2-mc-\$1;
#X obj 43 83 mc._generate \$0-dyn;
#X text 89 22 - id chns;
#X text 89 37 - reset;
#X obj 109 138 unpack f f;
#X obj 109 162 mc._cnt;
#X text 136 353 send~;
#X obj 107 354 + 1;
#X msg 107 377 connect 0 0 \$1 0;
#X connect 2 0 11 0;
#X connect 3 0 11 2;
#X connect 5 0 1 0;
#X connect 6 0 17 0;
#X connect 6 1 9 0;
#X connect 6 2 7 0;
#X connect 7 0 8 0;
#X connect 8 0 9 2;
#X connect 9 0 10 0;
#X connect 10 0 4 0;
#X connect 11 0 5 0;
#X connect 11 2 14 0;
#X connect 14 0 15 0;
#X connect 15 0 6 0;
#X connect 17 0 18 0;
#X connect 18 0 4 0;
#X restore 44 216 pd gen;
#X obj 231 84 pdcontrol;
#X obj 44 246 outlet;
#X obj 228 210 cnv 15 100 60 empty empty dyn 5 12 0 14 -233017 -66577
0;
#N canvas 489 193 753 480 \$0-dyn 0;
#X obj 26 5 inlet~;
#X restore 234 236 pd \$0-dyn;
#X text 303 87 arguments of parent patch;
#X text 297 33 arguments: #out;
#X obj 124 59 route set;
#X obj 124 33 inlet;
#X obj 44 33 inlet~;
#X msg 231 61 args 0;
#X obj 44 156 route float;
#X msg 97 216 reset;
#X msg 44 186 -1 \$1;
#X text 86 187 add dummy id;
#X connect 0 0 11 0;
#X connect 1 0 3 0;
#X connect 2 0 12 0;
#X connect 8 0 12 0;
#X connect 9 0 8 0;
#X connect 10 0 5 0;
#X connect 11 0 2 0;
#X connect 12 0 14 0;
#X connect 13 0 1 0;
#X connect 14 0 1 0;
#X restore 46 94 pd _dist;
#X obj 2 1 cnv 15 300 20 empty empty \$0 3 8 0 12 -233017 -66577 0
;
#X text 44 0 (c)grrrr.org \, gpl v3;
#X connect 1 0 0 0;
#X connect 2 0 3 0;
#X connect 2 1 3 1;
#X connect 3 0 1 0;
