#N canvas 69 23 307 245 12;
#X obj 168 40 inlet;
#X obj 43 194 outlet~;
#X obj 43 68 mc._in;
#X obj 43 162 mc._out;
#X obj 43 38 inlet~ fwd;
#N canvas 110 140 616 317 _effect 0;
#X obj 44 38 inlet;
#X obj 298 39 loadbang;
#N canvas 112 43 1129 686 gen 0;
#X obj 323 37 inlet;
#X obj 630 459 list append;
#X text 704 258 erase;
#X text 308 402 index;
#X obj 52 632 outlet;
#X obj 49 23 inlet;
#N canvas 0 23 421 295 accum 0;
#X obj 52 23 inlet;
#X obj 51 242 outlet;
#X obj 174 176 t a;
#X obj 52 50 t b a b, f 17;
#X obj 51 208 list;
#X msg 121 114 0;
#X obj 74 113 until;
#X obj 74 145 f;
#X obj 107 146 + 1;
#X obj 74 176 list prepend;
#X connect 0 0 3 0;
#X connect 2 0 9 1;
#X connect 3 0 4 0;
#X connect 3 1 6 0;
#X connect 3 2 5 0;
#X connect 3 2 9 1;
#X connect 4 0 1 0;
#X connect 5 0 7 1;
#X connect 6 0 7 0;
#X connect 7 0 8 0;
#X connect 7 0 9 0;
#X connect 8 0 7 1;
#X connect 9 0 4 1;
#X connect 9 0 2 0;
#X restore 628 318 pd accum;
#X obj 50 195 mc._gen \$0-dyn;
#X obj 593 90 r \$0-dyn;
#X obj 481 638 s \$0-dyn;
#X obj 628 239 t f b;
#N canvas 292 94 585 297 connections 0;
#X obj 63 26 inlet;
#X text 109 24 index;
#X text 159 62 receive~;
#X obj 62 214 outlet;
#X obj 62 136 pack 0 0;
#X text 268 20 inlets #0-#2;
#X text 268 55 route #3;
#X text 270 71 abs... #4;
#X text 267 89 receive~ .... #5+ix;
#X obj 63 63 expr $i1+5 \; $i1 \;;
#X msg 62 173 connect 3 \$2 \$1 0 \, connect \$1 0 4 \$2;
#X connect 0 0 9 0;
#X connect 4 0 10 0;
#X connect 9 0 4 0;
#X connect 9 1 4 1;
#X connect 10 0 3 0;
#X restore 309 551 pd connections;
#X msg 688 279 vis 1 \, editmode 1 \, mouse 0 30 0 0 \, mouseup 10000
10000 0 \, cut \, editmode 0 \, vis 0;
#X obj 49 125 f;
#X obj 679 425 list prepend obj 10 30 route;
#X text 642 339 list 0 1 2 3 ... n-1;
#X obj 52 606 list prepend \$0;
#X obj 49 59 unpack f f;
#X obj 49 83 t b f;
#X obj 346 500 pack f \$0 f f;
#X text 93 25 symbol mc-id channels;
#X text 322 18 (#out) abs options;
#X obj 323 66 route list;
#X obj 271 98 list split 1;
#X text 262 122 #out;
#X obj 381 101 t a b;
#X msg 413 125 -1;
#X text 409 143 #out;
#X obj 720 41 inlet;
#X obj 311 421 t f f f;
#X obj 357 445 * 25;
#X obj 358 470 + 60;
#X obj 633 484 list prepend obj 200 100;
#X text 67 383 index;
#X obj 96 491 pack f \$0 f f;
#X obj 75 408 t f f f;
#X obj 121 435 * 25;
#X obj 122 460 + 60;
#N canvas 363 86 585 297 connections 0;
#X obj 63 26 inlet;
#X text 109 24 index;
#X obj 62 214 outlet;
#X text 176 62 send~;
#X obj 334 27 inlet;
#X obj 62 136 pack 0 0;
#X text 380 29 chns;
#X text 295 99 inlets #0-#2;
#X text 295 134 route #3;
#X text 297 150 abs... #4;
#X text 294 168 receive~ .... #5+ix;
#X text 295 184 send~ .... #5+ix+chns;
#X obj 63 63 expr $i1+$i2+5 \; $i1 \;;
#X msg 62 173 connect 4 \$2 \$1 0;
#X connect 0 0 12 0;
#X connect 4 0 12 1;
#X connect 5 0 13 0;
#X connect 12 0 5 0;
#X connect 12 1 5 1;
#X connect 13 0 2 0;
#X restore 76 540 pd connections;
#X msg 96 515 obj 500 \$3 send~ \$2-mc-\$1;
#X msg 346 525 obj 10 \$3 receive~ \$4-mc-\$1;
#X obj 73 361 mc._cnt;
#X obj 143 337 f;
#X obj 627 381 t b b a;
#X obj 71 287 spigot;
#X obj 142 288 spigot;
#X obj 110 258 == -1;
#X obj 157 232 t a;
#X obj 177 264 != -1;
#X obj 50 222 t f f f f;
#X obj 143 313 t b;
#X text 710 407 #3: route;
#X text 720 465 #4: abs;
#X msg 618 526 connect 0 0 3 0 \, connect 1 0 4 0;
#X obj 690 238 t b b;
#X msg 717 565 0;
#X connect 0 0 22 0;
#X connect 1 0 32 0;
#X connect 5 0 17 0;
#X connect 6 0 43 0;
#X connect 7 0 49 0;
#X connect 7 1 29 0;
#X connect 7 2 10 0;
#X connect 8 0 7 1;
#X connect 10 0 6 0;
#X connect 10 1 54 0;
#X connect 11 0 9 0;
#X connect 12 0 9 0;
#X connect 13 0 7 0;
#X connect 14 0 9 0;
#X connect 16 0 4 0;
#X connect 17 0 18 0;
#X connect 17 1 13 1;
#X connect 18 0 13 0;
#X connect 18 1 19 3;
#X connect 19 0 40 0;
#X connect 22 0 23 0;
#X connect 22 1 25 0;
#X connect 23 0 47 0;
#X connect 23 1 1 1;
#X connect 25 0 1 1;
#X connect 25 1 26 0;
#X connect 26 0 47 0;
#X connect 28 0 54 0;
#X connect 29 0 11 0;
#X connect 29 1 19 0;
#X connect 29 2 30 0;
#X connect 30 0 31 0;
#X connect 31 0 19 2;
#X connect 32 0 9 0;
#X connect 34 0 39 0;
#X connect 35 0 38 0;
#X connect 35 1 34 0;
#X connect 35 2 36 0;
#X connect 36 0 37 0;
#X connect 37 0 34 2;
#X connect 38 0 9 0;
#X connect 39 0 9 0;
#X connect 40 0 9 0;
#X connect 41 0 35 0;
#X connect 42 0 41 0;
#X connect 43 0 53 0;
#X connect 43 1 1 0;
#X connect 43 2 14 0;
#X connect 44 0 41 0;
#X connect 45 0 50 0;
#X connect 46 0 44 1;
#X connect 47 0 46 0;
#X connect 47 0 48 0;
#X connect 47 0 42 1;
#X connect 48 0 45 1;
#X connect 49 0 16 0;
#X connect 49 1 44 0;
#X connect 49 1 45 0;
#X connect 49 3 38 1;
#X connect 50 0 42 0;
#X connect 53 0 9 0;
#X connect 54 0 12 0;
#X connect 54 1 55 0;
#X connect 55 0 16 0;
#X restore 45 216 pd gen;
#X obj 298 88 pdcontrol;
#X obj 46 248 outlet;
#X obj 214 188 cnv 15 100 60 empty empty dyn 5 12 0 14 -233017 -66577
0;
#N canvas 178 23 832 738 \$0-dyn 0;
#X obj 10 5 inlet;
#X obj 200 5 inlet;
#X obj 390 5 outlet;
#X restore 220 214 pd \$0-dyn;
#X obj 150 38 inlet;
#X text 212 271 TODO: set receive~s on unchanged signal count;
#X text 370 91 arguments of parent patch;
#X obj 45 88 route set;
#X obj 45 112 t b a;
#X text 364 37 arguments: (#out) abs [options];
#X obj 99 220 bng 15 250 50 0 empty empty reset 17 7 0 10 -261234 -1
-1;
#X obj 158 251 outlet;
#X msg 298 65 args 0;
#X connect 0 0 10 0;
#X connect 1 0 15 0;
#X connect 2 0 4 0;
#X connect 3 0 2 1;
#X connect 6 0 14 0;
#X connect 7 0 6 1;
#X connect 10 0 11 0;
#X connect 10 1 2 0;
#X connect 11 0 2 0;
#X connect 11 1 2 1;
#X connect 13 0 2 2;
#X connect 15 0 3 0;
#X restore 43 123 pd _effect;
#X obj 2 1 cnv 15 300 20 empty empty \$0 3 8 0 12 -233017 -66577 0
;
#X text 44 0 (c)grrrr.org \, gpl v3;
#X connect 0 0 5 1;
#X connect 2 0 5 0;
#X connect 3 0 1 0;
#X connect 4 0 2 0;
#X connect 4 1 5 0;
#X connect 5 0 3 0;
