#N canvas 157 191 388 306 12;
#X obj 33 32 mc.sig~;
#X obj 50 48 mc.sig~;
#X obj 33 216 mc.snap~;
#X obj 51 232 mc.snap~;
#X obj 70 248 mc.snap~;
#X obj 88 264 mc.snap~;
#X obj 107 216 mc.snap~;
#X obj 125 232 mc.snap~;
#X obj 144 248 mc.snap~;
#X obj 162 264 mc.snap~;
#X obj 33 195 mc.unpack~8, f 19;
#X obj 68 64 mc.sig~;
#X obj 85 80 mc.sig~;
#X obj 258 26 loadbang;
#X msg 259 49 \; pd dsp 1;
#X obj 33 96 mc.pack~4, f 11;
#X obj 33 156 mc.effect 8 vstplugin~ 4 8;
#X msg 166 129 open -e MultiEQ;
#X obj 293 131 tgl 15 0 empty empty empty 17 7 0 10 -262144 -1 -1 1
1;
#X msg 293 155 vis \$1;
#X text 166 110 from the IEM plugins;
#X connect 0 0 15 0;
#X connect 1 0 15 1;
#X connect 10 0 2 0;
#X connect 10 1 3 0;
#X connect 10 2 4 0;
#X connect 10 3 5 0;
#X connect 10 4 6 0;
#X connect 10 5 7 0;
#X connect 10 6 8 0;
#X connect 10 7 9 0;
#X connect 11 0 15 2;
#X connect 12 0 15 3;
#X connect 13 0 14 0;
#X connect 15 0 16 0;
#X connect 16 0 10 0;
#X connect 17 0 16 1;
#X connect 18 0 19 0;
#X connect 19 0 16 1;
