#N canvas 70 99 377 324 12;
#X obj 89 139 hradio 15 1 0 8 empty empty pick_one 0 -8 0 10 -261682
-1 -1 0;
#X msg 221 161 7 6 5 4 3 2 1 0;
#X msg 221 120 0 1 2 3 4 5 6 7;
#X obj 40 186 mc.index 7 6 5 4 3 2 1 0;
#X text 220 102 all in order;
#X text 217 142 reversed;
#X obj 40 20 mc.sig~;
#X obj 57 36 mc.sig~;
#X obj 40 84 mc.pack~8, f 18;
#X obj 40 245 mc.snap~;
#X obj 58 261 mc.snap~;
#X obj 77 277 mc.snap~;
#X obj 95 293 mc.snap~;
#X obj 114 245 mc.snap~;
#X obj 132 261 mc.snap~;
#X obj 151 277 mc.snap~;
#X obj 169 293 mc.snap~;
#X obj 40 224 mc.unpack~8, f 19;
#X obj 75 52 mc.sig~;
#X obj 92 68 mc.sig~;
#X obj 110 20 mc.sig~;
#X obj 127 36 mc.sig~;
#X obj 145 52 mc.sig~;
#X obj 162 68 mc.sig~;
#X obj 259 20 loadbang;
#X msg 260 43 \; pd dsp 1;
#X connect 0 0 3 1;
#X connect 1 0 3 1;
#X connect 2 0 3 1;
#X connect 3 0 17 0;
#X connect 6 0 8 0;
#X connect 7 0 8 1;
#X connect 8 0 3 0;
#X connect 17 0 9 0;
#X connect 17 1 10 0;
#X connect 17 2 11 0;
#X connect 17 3 12 0;
#X connect 17 4 13 0;
#X connect 17 5 14 0;
#X connect 17 6 15 0;
#X connect 17 7 16 0;
#X connect 18 0 8 2;
#X connect 19 0 8 3;
#X connect 20 0 8 4;
#X connect 21 0 8 5;
#X connect 22 0 8 6;
#X connect 23 0 8 7;
#X connect 24 0 25 0;
