#N canvas 206 264 506 270 12;
#X obj 148 47 inlet;
#X obj 35 221 outlet~;
#X obj 36 72 mc._in;
#X obj 35 197 mc._out;
#X obj 36 47 inlet~ fwd;
#X obj 2 1 cnv 15 500 20 empty empty \$0 3 8 0 12 -233017 -66577 0
;
#X text 44 0 (c)grrrr.org \, gpl v3;
#X obj 35 152 mc._map;
#X obj 237 46 loadbang;
#X obj 237 95 pdcontrol;
#X text 309 98 arguments of parent patch;
#X text 303 44 arguments: abs [options];
#X msg 237 72 args 0;
#X obj 237 128 list prepend set;
#X obj 237 152 list trim;
#X connect 0 0 7 1;
#X connect 2 0 7 0;
#X connect 3 0 1 0;
#X connect 4 0 2 0;
#X connect 4 1 7 0;
#X connect 7 0 3 0;
#X connect 8 0 12 0;
#X connect 9 0 13 0;
#X connect 12 0 9 0;
#X connect 13 0 14 0;
#X connect 14 0 7 0;
