#N canvas 176 165 306 266 12;
#X obj 32 228 outlet~;
#X obj 32 54 mc._in;
#X obj 32 204 mc._out;
#X obj 32 31 inlet~;
#X obj 83 89 unpack f f;
#X obj 32 170 t a a;
#X obj 128 204 spigot;
#X obj 128 228 print mc.mon \$0;
#X obj 65 120 cnv 15 120 30 empty empty \$0 3 6 0 10 -233017 -66577
0;
#X obj 83 133 nbx 4 14 -1e+37 1e+37 0 0 empty empty ID 20 -7 0 10 -261682
-1 -1 1106 256;
#X obj 128 133 nbx 3 14 -1e+37 1e+37 0 0 empty empty chns 3 -7 0 10
-261682 -1 -1 8 256;
#X obj 167 132 tgl 15 0 empty empty mon 0 -7 0 10 -204786 -1 -1 0 1
;
#X obj 67 133 bng 14 250 50 0 empty empty empty 17 7 0 10 -262144 -1
-1;
#X obj 2 1 cnv 15 300 20 empty empty \$0 3 8 0 12 -233017 -66577 0
;
#X text 44 0 (c)grrrr.org \, gpl v3;
#X connect 1 0 4 0;
#X connect 1 0 5 0;
#X connect 2 0 0 0;
#X connect 3 0 1 0;
#X connect 4 0 9 0;
#X connect 4 1 10 0;
#X connect 5 0 2 0;
#X connect 5 1 6 0;
#X connect 6 0 7 0;
#X connect 11 0 6 1;
#X coords 0 -1 1 1 120 30 2 65 120;
