#N canvas 156 343 332 262 12;
#X obj 44 38 inlet;
#X obj 42 197 outlet;
#X obj 171 37 inlet;
#X obj 42 172 mc._out;
#X obj 44 69 mc._in;
#X obj 43 131 mc._map;
#X connect 0 0 4 0;
#X connect 2 0 5 1;
#X connect 3 0 1 0;
#X connect 4 0 5 0;
#X connect 5 0 3 0;
