#N canvas 78 105 406 381 12;
#X obj 39 56 mc.nbx~;
#X obj 56 72 mc.nbx~;
#X floatatom 221 159 5 0 0 0 - - -;
#X msg 221 179 all op \$1;
#X obj 39 120 mc.pack~8, f 18;
#X obj 39 295 mc.nbx~;
#X obj 57 311 mc.nbx~;
#X obj 76 327 mc.nbx~;
#X obj 94 343 mc.nbx~;
#X obj 113 295 mc.nbx~;
#X obj 131 311 mc.nbx~;
#X obj 150 327 mc.nbx~;
#X obj 168 343 mc.nbx~;
#X obj 39 274 mc.unpack~8, f 19;
#X obj 74 88 mc.nbx~;
#X obj 91 104 mc.nbx~;
#X obj 109 56 mc.nbx~;
#X obj 126 72 mc.nbx~;
#X obj 144 88 mc.nbx~;
#X obj 161 104 mc.nbx~;
#X msg 61 177 set mc._op +~ 0;
#X obj 259 20 loadbang;
#X msg 260 43 \; pd dsp 1;
#X obj 39 210 mc.map mc._op *~ 2;
#X text 36 32 CHANGE SIGNAL VALUES;
#X text 61 160 change operation;
#X connect 0 0 4 0;
#X connect 1 0 4 1;
#X connect 2 0 3 0;
#X connect 3 0 23 1;
#X connect 4 0 23 0;
#X connect 13 0 5 0;
#X connect 13 1 6 0;
#X connect 13 2 7 0;
#X connect 13 3 8 0;
#X connect 13 4 9 0;
#X connect 13 5 10 0;
#X connect 13 6 11 0;
#X connect 13 7 12 0;
#X connect 14 0 4 2;
#X connect 15 0 4 3;
#X connect 16 0 4 4;
#X connect 17 0 4 5;
#X connect 18 0 4 6;
#X connect 19 0 4 7;
#X connect 20 0 23 0;
#X connect 21 0 22 0;
#X connect 23 0 13 0;
