#N canvas 92 67 507 422 12;
#X msg 84 160 all \$1;
#X msg 158 161 0 \$1;
#X msg 225 161 7 \$1;
#X obj 84 139 nbx 5 14 -1e+37 1e+37 0 1 empty empty empty 0 -8 0 10
-262130 -1 -1 4 256;
#X obj 158 139 nbx 5 14 -1e+37 1e+37 0 1 empty empty empty 0 -8 0 10
-262130 -1 -1 0 256;
#X obj 225 139 nbx 5 14 -1e+37 1e+37 0 1 empty empty empty 0 -8 0 10
-262130 -1 -1 0 256;
#X obj 39 194 mc.op *~ 2;
#X obj 39 34 mc.nbx~;
#X obj 56 50 mc.nbx~;
#X obj 39 98 mc.pack~8, f 18;
#X obj 38 310 mc.nbx~;
#X obj 56 326 mc.nbx~;
#X obj 75 342 mc.nbx~;
#X obj 93 358 mc.nbx~;
#X obj 112 310 mc.nbx~;
#X obj 130 326 mc.nbx~;
#X obj 149 342 mc.nbx~;
#X obj 167 358 mc.nbx~;
#X obj 38 289 mc.unpack~8, f 19;
#X obj 74 66 mc.nbx~;
#X obj 91 82 mc.nbx~;
#X obj 109 34 mc.nbx~;
#X obj 126 50 mc.nbx~;
#X obj 144 66 mc.nbx~;
#X obj 161 82 mc.nbx~;
#X text 53 219 NOTE: if the mc signal chain changes and mc.op is dynamically
(internally) recreated \, parameters input through the right inlet
are lost.;
#X connect 0 0 6 1;
#X connect 1 0 6 1;
#X connect 2 0 6 1;
#X connect 3 0 0 0;
#X connect 4 0 1 0;
#X connect 5 0 2 0;
#X connect 6 0 18 0;
#X connect 7 0 9 0;
#X connect 8 0 9 1;
#X connect 9 0 6 0;
#X connect 18 0 10 0;
#X connect 18 1 11 0;
#X connect 18 2 12 0;
#X connect 18 3 13 0;
#X connect 18 4 14 0;
#X connect 18 5 15 0;
#X connect 18 6 16 0;
#X connect 18 7 17 0;
#X connect 19 0 9 2;
#X connect 20 0 9 3;
#X connect 21 0 9 4;
#X connect 22 0 9 5;
#X connect 23 0 9 6;
#X connect 24 0 9 7;
