#N canvas 575 449 505 303 12;
#X obj 326 45 inlet;
#X obj 40 264 outlet~;
#X obj 134 46 loadbang;
#X obj 134 94 pdcontrol;
#X msg 134 71 args 0;
#X obj 326 88 list split 1;
#X obj 326 145 list append;
#X obj 366 112 list prepend op;
#X obj 134 124 list prepend set mc._op;
#X obj 133 149 list trim;
#X obj 40 48 inlet~ fwd;
#X obj 54 82 route set;
#X obj 326 170 list trim;
#X obj 2 1 cnv 15 500 20 empty empty \$0 3 8 0 12 -233017 -66577 0
;
#X text 44 0 (c)grrrr.org \, gpl v3;
#X obj 40 206 mc._map;
#X obj 40 138 mc._in;
#X obj 40 236 mc._out;
#X connect 0 0 5 0;
#X connect 2 0 4 0;
#X connect 3 0 8 0;
#X connect 4 0 3 0;
#X connect 5 0 6 0;
#X connect 5 1 7 0;
#X connect 6 0 12 0;
#X connect 7 0 6 1;
#X connect 8 0 9 0;
#X connect 9 0 15 0;
#X connect 10 0 16 0;
#X connect 10 1 11 0;
#X connect 11 0 8 0;
#X connect 11 1 16 0;
#X connect 12 0 15 1;
#X connect 15 0 17 0;
#X connect 16 0 15 0;
#X connect 17 0 1 0;
