#N canvas 41 53 518 231 12;
#X obj 45 164 outlet;
#X obj 45 33 inlet~;
#X obj 158 33 inlet~;
#X obj 272 34 inlet~;
#X obj 385 34 inlet~;
#X obj 44 66 send~ \$0-mc-0;
#X obj 157 66 send~ \$0-mc-1;
#X obj 271 67 send~ \$0-mc-2;
#X obj 384 67 send~ \$0-mc-3;
#X obj 46 134 mc._out \$0 4;
#X connect 1 0 5 0;
#X connect 2 0 6 0;
#X connect 3 0 7 0;
#X connect 4 0 8 0;
#X connect 9 0 0 0;
