#N canvas 315 204 319 282 12;
#X obj 53 37 inlet;
#X obj 53 223 outlet;
#X obj 122 38 inlet;
#X obj 53 95 mc._in;
#X obj 122 94 mc._in;
#X obj 53 198 mc._out;
#X obj 54 142 mc._pack;
#X connect 0 0 3 0;
#X connect 2 0 4 0;
#X connect 3 0 6 0;
#X connect 4 0 6 1;
#X connect 5 0 1 0;
#X connect 6 0 5 0;
