#N canvas 104 52 252 221 12;
#X obj 26 23 inlet~;
#X obj 83 23 inlet~;
#X obj 82 84 send~ \$0-mc-1;
#X obj 28 162 outlet~;
#X obj 25 54 send~ \$0-mc-0;
#X obj 28 130 mc._out \$0 2;
#X connect 0 0 4 0;
#X connect 1 0 2 0;
#X connect 5 0 3 0;
