#N canvas 315 204 296 255 12;
#X obj 51 36 inlet~;
#X obj 164 34 inlet~;
#X obj 52 73 mc._in;
#X obj 164 70 mc._in;
#X obj 51 172 mc._out;
#X obj 51 197 outlet~;
#X obj 51 118 mc._pack;
#X connect 0 0 2 0;
#X connect 1 0 3 0;
#X connect 2 0 6 0;
#X connect 3 0 6 1;
#X connect 4 0 5 0;
#X connect 6 0 4 0;
