#N canvas 94 78 556 219 12;
#X obj 20 40 inlet~;
#X obj 77 40 inlet~;
#X obj 134 40 inlet~;
#X obj 190 41 inlet~;
#X obj 249 42 inlet~;
#X obj 307 44 inlet~;
#X obj 365 43 inlet~;
#X obj 420 42 inlet~;
#X obj 76 101 send~ \$0-mc-1;
#X obj 133 73 send~ \$0-mc-2;
#X obj 188 103 send~ \$0-mc-3;
#X obj 248 75 send~ \$0-mc-4;
#X obj 307 104 send~ \$0-mc-5;
#X obj 364 76 send~ \$0-mc-6;
#X obj 419 104 send~ \$0-mc-7;
#X obj 19 176 outlet~;
#X obj 21 69 send~ \$0-mc-0;
#X obj 19 147 mc._out \$0 8;
#X obj 2 1 cnv 15 550 20 empty empty \$0 3 8 0 12 -233017 -66577 0
;
#X text 44 0 (c)grrrr.org \, gpl v3;
#X connect 0 0 16 0;
#X connect 1 0 8 0;
#X connect 2 0 9 0;
#X connect 3 0 10 0;
#X connect 4 0 11 0;
#X connect 5 0 12 0;
#X connect 6 0 13 0;
#X connect 7 0 14 0;
#X connect 17 0 15 0;
