#N canvas 310 233 466 267 12;
#X obj 41 206 mc.snap~;
#X obj 41 44 mc.sig~;
#X obj 108 44 mc.sig~;
#X obj 209 206 mc.snap~;
#X obj 97 206 mc.snap~;
#X obj 178 44 mc.sig~;
#X obj 244 44 mc.sig~;
#X obj 153 206 mc.snap~;
#X obj 41 176 mc.unpack~8, f 25;
#X obj 41 68 mc.pack~4, f 18;
#X obj 177 68 mc.pack~4, f 18;
#X obj 41 125 mc.pack;
#X connect 1 0 9 0;
#X connect 2 0 9 3;
#X connect 5 0 10 0;
#X connect 6 0 10 3;
#X connect 8 0 0 0;
#X connect 8 3 4 0;
#X connect 8 4 7 0;
#X connect 8 7 3 0;
#X connect 9 0 11 0;
#X connect 10 0 11 1;
#X connect 11 0 8 0;
