#N canvas 41 53 316 215 12;
#X obj 45 150 outlet;
#X obj 48 32 inlet~;
#X obj 161 32 inlet~;
#X obj 47 65 send~ \$0-mc-0;
#X obj 160 65 send~ \$0-mc-1;
#X obj 47 121 mc._out \$0 2;
#X connect 1 0 3 0;
#X connect 2 0 4 0;
#X connect 5 0 0 0;
