#N canvas 94 78 556 214 12;
#X obj 26 23 inlet~;
#X obj 83 23 inlet~;
#X obj 140 23 inlet~;
#X obj 196 24 inlet~;
#X obj 255 25 inlet~;
#X obj 313 27 inlet~;
#X obj 371 26 inlet~;
#X obj 426 25 inlet~;
#X obj 82 84 send~ \$0-mc-1;
#X obj 139 56 send~ \$0-mc-2;
#X obj 194 86 send~ \$0-mc-3;
#X obj 254 58 send~ \$0-mc-4;
#X obj 313 87 send~ \$0-mc-5;
#X obj 370 59 send~ \$0-mc-6;
#X obj 425 87 send~ \$0-mc-7;
#X obj 25 166 outlet~;
#X obj 27 52 send~ \$0-mc-0;
#X obj 25 137 mc._out \$0 8;
#X connect 0 0 16 0;
#X connect 1 0 8 0;
#X connect 2 0 9 0;
#X connect 3 0 10 0;
#X connect 4 0 11 0;
#X connect 5 0 12 0;
#X connect 6 0 13 0;
#X connect 7 0 14 0;
#X connect 17 0 15 0;
