#N canvas 69 23 306 206 12;
#X obj 103 45 inlet;
#X obj 35 153 outlet~;
#X obj 35 131 mc._out;
#X obj 35 44 inlet;
#N canvas 94 92 540 244 _source 0;
#X obj 46 38 inlet;
#X obj 221 39 loadbang;
#N canvas 71 50 405 400 gen 0;
#X obj 55 25 inlet;
#X obj 51 353 outlet;
#X obj 281 27 r \$0-dyn;
#X obj 255 352 s \$0-dyn;
#X obj 51 327 list prepend \$0;
#X obj 53 89 list split 1, f 41;
#X text 145 66 #out abs options;
#X text 60 137 dummy id chns;
#X obj 51 161 mc._generate \$0-dyn, f 36;
#X obj 221 213 t f f;
#X obj 221 186 unpack f f;
#N canvas 0 23 450 300 base 0;
#X obj 62 21 inlet;
#X text 73 99 list 0 1 2 3 ... n-1;
#X obj 89 159 list prepend obj 10 30 route -1;
#X msg 60 192 connect 0 0 1 0;
#X obj 60 124 t b a;
#X obj 61 57 mc._listseq;
#X obj 59 230 outlet;
#X connect 0 0 5 0;
#X connect 2 0 6 0;
#X connect 3 0 6 0;
#X connect 4 0 3 0;
#X connect 4 1 2 0;
#X connect 5 0 4 0;
#X restore 253 268 pd base;
#N canvas 107 48 325 527 objects 0;
#X obj 59 34 inlet;
#X obj 211 30 inlet;
#X obj 151 473 outlet;
#X text 116 98 index;
#N canvas 649 119 585 297 connections 0;
#X obj 63 26 inlet;
#X text 109 24 index;
#X obj 62 214 outlet;
#X text 160 77 send~;
#X obj 63 63 expr $i1*2+2 \; $i1*2+3 \; $i1 \; $i1+1 \;;
#X text 159 62 abs;
#X obj 62 136 pack 0 0 0 0;
#X msg 62 173 connect 1 0 \$1 0 \, connect 1 \$4 \$1 0 \, connect \$1
0 \$2 0;
#X connect 0 0 4 0;
#X connect 4 0 6 0;
#X connect 4 1 6 1;
#X connect 4 2 6 2;
#X connect 4 3 6 3;
#X connect 6 0 7 0;
#X connect 7 0 2 0;
#X restore 63 416 pd connections;
#X obj 166 176 * 25;
#X obj 167 201 + 60;
#X msg 91 366 obj 500 \$3 send~ \$2-mc-\$1;
#X obj 91 343 pack f \$0 f;
#X obj 60 145 t f f b f;
#X obj 137 245 pack 10 0;
#X obj 137 273 list append;
#X obj 137 295 list prepend obj;
#X obj 59 98 mc._cnt;
#X connect 0 0 13 0;
#X connect 1 0 11 1;
#X connect 4 0 2 0;
#X connect 5 0 6 0;
#X connect 6 0 8 2;
#X connect 6 0 10 1;
#X connect 7 0 2 0;
#X connect 8 0 7 0;
#X connect 9 0 4 0;
#X connect 9 1 8 0;
#X connect 9 2 10 0;
#X connect 9 3 5 0;
#X connect 10 0 11 0;
#X connect 11 0 12 0;
#X connect 12 0 2 0;
#X connect 13 0 9 0;
#X restore 139 266 pd objects;
#X obj 54 59 route list;
#X msg 53 119 -1 \$1;
#X connect 0 0 13 0;
#X connect 2 0 8 2;
#X connect 4 0 1 0;
#X connect 5 0 14 0;
#X connect 5 1 12 1;
#X connect 8 0 4 0;
#X connect 8 2 10 0;
#X connect 9 0 12 0;
#X connect 9 1 11 0;
#X connect 10 0 9 0;
#X connect 11 0 3 0;
#X connect 12 0 3 0;
#X connect 13 0 5 0;
#X connect 13 1 8 0;
#X connect 14 0 8 0;
#X restore 44 161 pd gen;
#X obj 221 88 pdcontrol;
#X obj 45 193 outlet;
#X obj 214 158 cnv 15 100 60 empty empty dyn 5 12 0 14 -233017 -66577
0;
#N canvas 178 23 753 480 \$0-dyn 0;
#X obj 10 5 inlet;
#X restore 220 184 pd \$0-dyn;
#X obj 137 38 inlet;
#X text 293 91 arguments of parent patch;
#X obj 45 88 route set;
#X text 287 37 arguments: (#out) abs [options];
#X msg 221 65 args 0;
#X msg 95 161 reset;
#X connect 0 0 9 0;
#X connect 1 0 11 0;
#X connect 2 0 4 0;
#X connect 3 0 2 0;
#X connect 7 0 6 0;
#X connect 9 0 2 0;
#X connect 11 0 3 0;
#X connect 12 0 2 0;
#X restore 35 86 pd _source;
#X obj 2 1 cnv 15 300 20 empty empty \$0 3 8 0 12 -233017 -66577 0
;
#X text 44 0 (c)grrrr.org \, gpl v3;
#X connect 0 0 4 1;
#X connect 2 0 1 0;
#X connect 3 0 4 0;
#X connect 4 0 2 0;
