#N canvas 69 23 306 244 12;
#X obj 156 55 inlet;
#X obj 32 77 mc._in;
#X obj 32 53 inlet~ fwd;
#X obj 32 179 outlet;
#N canvas 72 190 651 309 _sink 0;
#X obj 44 38 inlet;
#X obj 298 39 loadbang;
#N canvas 142 219 430 404 gen 0;
#X obj 164 27 inlet;
#X obj 48 345 outlet;
#X obj 48 30 inlet;
#X obj 305 30 r \$0-dyn;
#X obj 302 346 s \$0-dyn;
#X obj 48 321 list prepend \$0;
#X text 163 8 (#out) abs options;
#X obj 49 140 mc._generate \$0-dyn;
#N canvas 0 23 450 300 base 0;
#X obj 59 21 inlet;
#X obj 59 236 outlet;
#X obj 93 149 list prepend obj 10 30 route;
#X text 98 123 list 0 1 2 3 ... n-1;
#X msg 59 191 connect 0 0 3 0;
#X obj 93 98 mc._listseq;
#X obj 59 63 t b f;
#X connect 0 0 6 0;
#X connect 2 0 1 0;
#X connect 4 0 1 0;
#X connect 5 0 2 0;
#X connect 6 0 4 0;
#X connect 6 1 5 0;
#X restore 292 286 pd base;
#N canvas 62 67 543 589 objects 0;
#X obj 47 41 inlet;
#X obj 311 41 inlet;
#X obj 176 40 inlet;
#X text 180 20 id;
#X obj 202 256 list append;
#X text 53 89 index;
#N canvas 442 299 533 329 connections 0;
#X obj 63 26 inlet;
#X text 109 24 index;
#X obj 62 271 outlet;
#X obj 63 131 pack 0 0 0 0;
#X text 203 61 receive~;
#X text 206 76 abs;
#X text 205 91 list prepend #ix;
#X obj 376 26 inlet;
#X obj 62 158 t a a;
#X obj 128 157 spigot;
#X msg 62 189 connect 3 \$4 \$1 0 \, connect \$1 0 \$2 0 \, connect
1 0 \$2 0;
#X msg 128 215 connect \$2 0 \$3 0 \, connect \$3 0 2 0;
#X obj 376 48 != 0;
#X obj 63 63 expr $i1*($i2+2)+5 \; $i1*($i2+2)+4 \; $i1*($i2+2)+6 \;
$i1 \;;
#X connect 0 0 13 0;
#X connect 3 0 8 0;
#X connect 7 0 12 0;
#X connect 8 0 10 0;
#X connect 8 1 9 0;
#X connect 9 0 11 0;
#X connect 10 0 2 0;
#X connect 11 0 2 0;
#X connect 12 0 9 1;
#X connect 12 0 13 1;
#X connect 13 0 3 0;
#X connect 13 1 3 1;
#X connect 13 2 3 2;
#X connect 13 3 3 3;
#X restore 50 489 pd connections;
#X obj 85 328 pack f \$0 f f;
#X obj 203 160 * 25;
#X obj 202 183 + 60;
#X obj 202 232 pack 200 100;
#X obj 202 280 list prepend obj;
#X obj 47 121 t f f b f, f 17;
#X obj 85 352 t a a;
#X msg 117 375 obj 10 \$3 receive~ \$4-mc-\$1;
#X msg 85 435 obj 500 \$3 list prepend \$1;
#X obj 85 412 spigot;
#X obj 47 65 mc._cnt;
#X obj 284 526 outlet;
#X text 47 21 chns;
#N canvas 721 255 298 242 nrm-args 0;
#X obj 44 27 inlet;
#X obj 44 55 route list;
#X obj 44 91 list split 1;
#X text 38 113 #out;
#X text 155 134 #out;
#X msg 159 116 0;
#X obj 41 170 outlet;
#X obj 197 178 outlet;
#X obj 158 92 t b a;
#X connect 0 0 1 0;
#X connect 1 0 2 0;
#X connect 1 1 8 0;
#X connect 2 0 6 0;
#X connect 2 1 7 0;
#X connect 5 0 6 0;
#X connect 8 0 5 0;
#X connect 8 1 7 0;
#X restore 311 74 pd nrm-args;
#X text 283 96 out-chns;
#X text 307 21 (out-chns) abs options;
#X text 385 95 abs options;
#X connect 0 0 17 0;
#X connect 1 0 20 0;
#X connect 2 0 7 3;
#X connect 4 0 11 0;
#X connect 6 0 18 0;
#X connect 7 0 13 0;
#X connect 8 0 9 0;
#X connect 9 0 7 2;
#X connect 9 0 10 1;
#X connect 10 0 4 0;
#X connect 11 0 18 0;
#X connect 12 0 6 0;
#X connect 12 1 7 0;
#X connect 12 2 10 0;
#X connect 12 3 8 0;
#X connect 13 0 16 0;
#X connect 13 1 14 0;
#X connect 14 0 18 0;
#X connect 15 0 18 0;
#X connect 16 0 15 0;
#X connect 17 0 12 0;
#X connect 20 0 16 1;
#X connect 20 0 6 1;
#X connect 20 1 4 1;
#X restore 203 286 pd objects;
#X obj 135 164 t f f;
#X obj 122 345 outlet;
#N canvas 533 164 373 287 set-recvs 0;
#X obj 63 35 inlet;
#X obj 276 36 inlet;
#X obj 64 228 outlet;
#X obj 63 115 mc._cnt;
#X msg 64 193 \$1 set \$2-mc-\$1;
#X obj 63 163 pack f f;
#X text 277 17 id-in;
#X obj 62 59 unpack;
#X text 59 16 chns-out chns-in (equal);
#X connect 0 0 7 0;
#X connect 1 0 5 1;
#X connect 3 0 5 0;
#X connect 4 0 2 0;
#X connect 5 0 4 0;
#X connect 7 0 3 0;
#X restore 93 286 pd set-recvs;
#X connect 0 0 9 2;
#X connect 2 0 7 0;
#X connect 3 0 7 2;
#X connect 5 0 1 0;
#X connect 7 0 5 0;
#X connect 7 1 12 0;
#X connect 7 2 10 0;
#X connect 7 3 9 1;
#X connect 7 3 12 1;
#X connect 8 0 4 0;
#X connect 9 0 4 0;
#X connect 10 0 9 0;
#X connect 10 1 8 0;
#X connect 12 0 11 0;
#X restore 45 216 pd gen;
#X obj 298 88 pdcontrol;
#X obj 220 258 outlet;
#X obj 214 188 cnv 15 100 60 empty empty dyn 5 12 0 14 -233017 -66577
0;
#N canvas 527 23 753 480 \$0-dyn 0;
#X obj 10 5 inlet;
#X obj 200 5 inlet;
#X obj 533 4 outlet;
#X restore 220 214 pd \$0-dyn;
#X obj 150 38 inlet;
#X text 370 91 arguments of parent patch;
#X obj 45 88 route set;
#X obj 45 112 t b a;
#X text 364 37 arguments: (#outlet) abs [options];
#X msg 298 65 args 0;
#X msg 95 216 reset;
#X connect 0 0 9 0;
#X connect 1 0 12 0;
#X connect 2 1 6 0;
#X connect 3 0 2 1;
#X connect 6 0 4 0;
#X connect 7 0 6 1;
#X connect 9 0 10 0;
#X connect 9 1 2 0;
#X connect 10 0 2 0;
#X connect 10 1 2 1;
#X connect 12 0 3 0;
#X connect 13 0 2 0;
#X restore 32 141 pd _sink;
#X obj 2 1 cnv 15 300 20 empty empty \$0 3 8 0 12 -233017 -66577 0
;
#X text 44 0 (c)grrrr.org \, gpl v3;
#X connect 0 0 4 1;
#X connect 1 0 4 0;
#X connect 2 0 1 0;
#X connect 2 1 4 0;
#X connect 4 0 3 0;
