#N canvas 115 266 607 321 12;
#X obj 39 184 route 0 1 2 3 4 5 6 7;
#X floatatom 39 206 5 0 0 0 - - -;
#X floatatom 57 226 5 0 0 0 - - -;
#X obj 39 44 mc.source 8 noise~;
#X floatatom 75 246 5 0 0 0 - - -;
#X floatatom 93 266 5 0 0 0 - - -;
#X floatatom 111 206 5 0 0 0 - - -;
#X floatatom 129 226 5 0 0 0 - - -;
#X floatatom 147 246 5 0 0 0 - - -;
#X floatatom 165 266 5 0 0 0 - - -;
#X obj 262 186 catch~ sum;
#X obj 262 210 env~;
#X floatatom 262 232 5 0 0 0 - - -;
#X obj 39 125 mc.sink 1 env~;
#X msg 64 90 set 0 throw~ sum;
#X text 147 135 has an outlet that will be forwarded.;
#X text 147 151 Only one such outlet is possible.;
#X text 188 89 set alternative sink object;
#X text 146 118 1 (any nonzero number) means that the sink object;
#X text 175 43 8 channels of independent noise~;
#X obj 2 1 cnv 15 600 20 empty empty empty 3 8 0 12 -233017 -66577
0;
#X text 35 1 (c)grrrr.org \, gpl v3;
#X connect 0 0 1 0;
#X connect 0 1 2 0;
#X connect 0 2 4 0;
#X connect 0 3 5 0;
#X connect 0 4 6 0;
#X connect 0 5 7 0;
#X connect 0 6 8 0;
#X connect 0 7 9 0;
#X connect 3 0 13 0;
#X connect 10 0 11 0;
#X connect 11 0 12 0;
#X connect 13 0 0 0;
#X connect 14 0 13 0;
