#N canvas 315 204 440 369 12;
#X obj 53 35 inlet;
#N canvas 225 31 1006 739 gen 0;
#X text 470 236 erase;
#X text 171 310 index;
#X obj 644 460 * 25;
#X text 682 481 y;
#X obj 52 695 outlet;
#X obj 49 23 inlet;
#X obj 49 64 unpack s f;
#X text 93 25 symbol mc-signal channels;
#X obj 50 195 mc._gen \$0-dyn;
#X obj 165 167 r \$0-dyn;
#X obj 481 701 s \$0-dyn;
#X obj 49 87 t b s;
#X msg 473 255 vis 1 \, editmode 1 \, mouse 0 30 0 0 \, mouseup 10000
10000 0 \, cut \, editmode 0 \, vis 0;
#X obj 302 23 inlet;
#X obj 50 151 f;
#X text 21 170 total channels;
#X obj 644 483 + 30;
#X obj 380 431 moses;
#X obj 410 486 symbol;
#X obj 496 484 symbol;
#X text 301 549 receive~;
#X text 302 563 send~;
#X obj 217 550 expr $i1*2 \; $i1*2+1;
#X obj 217 592 pack 0 0;
#X msg 217 616 connect \$1 0 \$2 0;
#X obj 217 310 t f f f, f 17;
#X obj 380 546 pack f \$0 f s f;
#X obj 380 456 t f b f;
#X obj 494 455 t f b f;
#X obj 549 484 -;
#X obj 437 400 t f f;
#X msg 380 571 obj 10 \$3 receive~ \$4-\$5 \, obj 500 \$3 send~ \$2-mc-\$1
;
#X obj 52 669 list prepend \$0-mc;
#X connect 2 0 16 0;
#X connect 5 0 6 0;
#X connect 6 0 11 0;
#X connect 6 1 30 0;
#X connect 6 1 14 1;
#X connect 8 0 32 0;
#X connect 8 1 25 0;
#X connect 8 2 12 0;
#X connect 9 0 8 1;
#X connect 11 0 14 0;
#X connect 11 1 18 1;
#X connect 12 0 10 0;
#X connect 14 0 8 0;
#X connect 16 0 26 2;
#X connect 17 0 27 0;
#X connect 17 1 28 0;
#X connect 18 0 26 3;
#X connect 19 0 26 3;
#X connect 22 0 23 0;
#X connect 22 1 23 1;
#X connect 23 0 24 0;
#X connect 24 0 10 0;
#X connect 25 0 22 0;
#X connect 25 1 17 0;
#X connect 25 2 2 0;
#X connect 26 0 31 0;
#X connect 27 0 26 0;
#X connect 27 1 18 0;
#X connect 27 2 26 4;
#X connect 28 0 26 0;
#X connect 28 1 19 0;
#X connect 28 2 29 0;
#X connect 29 0 26 4;
#X connect 30 0 17 1;
#X connect 30 1 29 1;
#X connect 31 0 10 0;
#X connect 32 0 4 0;
#X restore 172 200 pd gen;
#X obj 43 316 outlet;
#X obj 43 291 list trim;
#X obj 172 224 list prepend mc;
#X obj 53 91 mc._chk;
#X obj 43 267 list;
#X obj 271 34 cnv 15 100 60 empty empty dyn 5 12 0 14 -233017 -66577
0;
#N canvas 113 148 753 480 \$0-dyn 0;
#X obj 10 30 receive~ 1585-mc-0;
#X obj 500 30 send~ 1605-mc-0;
#X obj 10 55 receive~ 1585-mc-1;
#X obj 500 55 send~ 1605-mc-1;
#X obj 10 80 receive~ 1585-mc-2;
#X obj 500 80 send~ 1605-mc-2;
#X obj 10 105 receive~ 1585-mc-3;
#X obj 500 105 send~ 1605-mc-3;
#X obj 10 130 receive~ 1585-mc-4;
#X obj 500 130 send~ 1605-mc-4;
#X obj 10 155 receive~ 1585-mc-5;
#X obj 500 155 send~ 1605-mc-5;
#X obj 10 180 receive~ 1585-mc-6;
#X obj 500 180 send~ 1605-mc-6;
#X obj 10 205 receive~ 1585-mc-7;
#X obj 500 205 send~ 1605-mc-7;
#X connect 0 0 1 0;
#X connect 2 0 3 0;
#X connect 4 0 5 0;
#X connect 6 0 7 0;
#X connect 8 0 9 0;
#X connect 10 0 11 0;
#X connect 12 0 13 0;
#X connect 14 0 15 0;
#X restore 277 60 pd \$0-dyn;
#X obj 43 203 mc._dsp;
#X obj 43 227 t b;
#X obj 73 228 bang~;
#X obj 164 34 inlet;
#X obj 53 64 route mc;
#X connect 0 0 13 0;
#X connect 1 0 4 0;
#X connect 3 0 2 0;
#X connect 4 0 6 1;
#X connect 5 0 1 0;
#X connect 6 0 3 0;
#X connect 9 0 10 0;
#X connect 10 0 6 0;
#X connect 11 0 6 0;
#X connect 13 0 5 0;
