#N canvas 315 204 306 241 12;
#X obj 53 64 mc._in;
#X obj 53 154 mc._out;
#X obj 53 179 outlet~;
#X obj 53 31 inlet~ fwd;
#X obj 121 65 route set;
#X obj 212 35 inlet;
#N canvas 0 23 586 279 _slice 0;
#X obj 44 38 inlet;
#X obj 298 39 loadbang;
#X obj 298 88 pdcontrol;
#X obj 46 223 outlet;
#X obj 125 38 inlet;
#X text 370 91 arguments of parent patch;
#X text 364 37 arguments: abs [options];
#X obj 125 62 t b a;
#X obj 46 175 mc._index;
#N canvas 344 92 450 305 indices 0;
#X obj 65 31 inlet;
#X obj 232 33 inlet;
#X obj 64 260 outlet;
#X obj 206 261 outlet;
#X text 63 11 mc-id channels;
#X text 228 13 start stop-excl [step=1];
#X obj 105 129 unpack;
#X text 157 130 channels;
#N canvas 0 23 343 259 normalize-slice 0;
#X obj 51 28 inlet;
#X obj 50 64 t a b;
#X obj 50 94 pack f f f;
#X msg 117 68 1;
#X obj 50 198 outlet;
#X obj 50 116 unpack f f f;
#X obj 108 198 outlet;
#X obj 169 199 outlet;
#X obj 170 152 sel 0;
#X msg 170 175 1;
#X connect 0 0 1 0;
#X connect 1 0 2 0;
#X connect 1 1 3 0;
#X connect 2 0 5 0;
#X connect 3 0 2 2;
#X connect 5 0 4 0;
#X connect 5 1 6 0;
#X connect 5 2 8 0;
#X connect 8 0 9 0;
#X connect 8 1 7 0;
#X connect 9 0 7 0;
#X restore 232 60 pd normalize-slice;
#N canvas 0 23 450 300 reg-mc 0;
#X obj 47 30 inlet;
#X obj 48 171 outlet;
#X obj 48 129 list;
#X obj 61 97 t b a;
#X obj 48 64 route bang;
#X connect 0 0 4 0;
#X connect 2 0 1 0;
#X connect 3 0 2 0;
#X connect 3 1 2 1;
#X connect 4 0 2 0;
#X connect 4 1 3 0;
#X restore 65 69 pd reg-mc;
#X obj 206 154 mc._iterslice;
#X obj 64 101 t a b a b;
#X obj 206 229 list;
#X obj 227 206 t a a;
#X obj 206 182 list prepend;
#X connect 0 0 9 0;
#X connect 1 0 8 0;
#X connect 6 1 10 0;
#X connect 8 0 10 1;
#X connect 8 1 10 2;
#X connect 8 2 10 3;
#X connect 9 0 11 0;
#X connect 10 0 14 0;
#X connect 11 0 2 0;
#X connect 11 1 12 0;
#X connect 11 2 6 0;
#X connect 11 3 14 1;
#X connect 12 0 3 0;
#X connect 13 0 12 1;
#X connect 13 1 14 1;
#X connect 14 0 13 0;
#X restore 45 141 pd indices;
#X msg 298 65 args 0;
#X connect 0 0 9 0;
#X connect 1 0 10 0;
#X connect 2 0 9 1;
#X connect 4 0 7 0;
#X connect 7 0 9 0;
#X connect 7 1 9 1;
#X connect 8 0 3 0;
#X connect 9 0 8 0;
#X connect 9 1 8 1;
#X connect 10 0 2 0;
#X restore 53 115 pd _slice;
#X connect 0 0 6 0;
#X connect 1 0 2 0;
#X connect 3 0 0 0;
#X connect 3 1 4 0;
#X connect 4 0 6 1;
#X connect 5 0 6 1;
#X connect 6 0 1 0;
