#N canvas 316 236 528 304 12;
#X text 366 132 step size 2;
#X obj 40 150 mc.slice 4 8;
#X obj 195 151 mc.slice 0 4;
#X obj 340 151 mc.slice 0 8 2;
#X obj 415 49 loadbang;
#X msg 416 72 \; pd dsp 1;
#X obj 40 44 mc.sig~;
#X obj 57 60 mc.sig~;
#X obj 40 108 mc.pack~8, f 18;
#X obj 75 76 mc.sig~;
#X obj 92 92 mc.sig~;
#X obj 110 44 mc.sig~;
#X obj 127 60 mc.sig~;
#X obj 145 76 mc.sig~;
#X obj 162 92 mc.sig~;
#X obj 40 217 mc.snap~;
#X obj 58 233 mc.snap~;
#X obj 77 249 mc.snap~;
#X obj 95 265 mc.snap~;
#X obj 40 196 mc.unpack~4, f 12;
#X obj 195 216 mc.snap~;
#X obj 213 232 mc.snap~;
#X obj 232 248 mc.snap~;
#X obj 250 264 mc.snap~;
#X obj 195 195 mc.unpack~4, f 12;
#X obj 340 216 mc.snap~;
#X obj 358 232 mc.snap~;
#X obj 377 248 mc.snap~;
#X obj 395 264 mc.snap~;
#X obj 340 195 mc.unpack~4, f 12;
#X msg 276 110 0 \$1;
#X text 36 22 CHANGE THOSE;
#X obj 276 91 hradio 15 1 0 5 empty empty empty 0 -8 0 10 -261682 -1
-1 0;
#X text 337 73 4;
#X text 278 73 0;
#X connect 1 0 19 0;
#X connect 2 0 24 0;
#X connect 3 0 29 0;
#X connect 4 0 5 0;
#X connect 6 0 8 0;
#X connect 7 0 8 1;
#X connect 8 0 1 0;
#X connect 8 0 2 0;
#X connect 8 0 3 0;
#X connect 9 0 8 2;
#X connect 10 0 8 3;
#X connect 11 0 8 4;
#X connect 12 0 8 5;
#X connect 13 0 8 6;
#X connect 14 0 8 7;
#X connect 19 0 15 0;
#X connect 19 1 16 0;
#X connect 19 2 17 0;
#X connect 19 3 18 0;
#X connect 24 0 20 0;
#X connect 24 1 21 0;
#X connect 24 2 22 0;
#X connect 24 3 23 0;
#X connect 29 0 25 0;
#X connect 29 1 26 0;
#X connect 29 2 27 0;
#X connect 29 3 28 0;
#X connect 30 0 2 1;
#X connect 32 0 30 0;
