#N canvas 106 154 425 287 12;
#X obj 68 178 mc.nbx~;
#X obj 86 194 mc.nbx~;
#X obj 105 210 mc.nbx~;
#X obj 123 226 mc.nbx~;
#X obj 142 178 mc.nbx~;
#X obj 160 194 mc.nbx~;
#X obj 179 210 mc.nbx~;
#X obj 197 226 mc.nbx~;
#X msg 79 40 1;
#X msg 145 40 8;
#X obj 46 155 mc.unpack~8, f 19;
#X msg 46 40 0;
#X obj 46 110 mc.source 8 osc~ 440;
#X msg 46 70 set \$1 osc~ 456;
#X obj 43 224 dac~;
#X msg 112 40 2;
#X connect 8 0 13 0;
#X connect 9 0 13 0;
#X connect 10 0 0 0;
#X connect 10 0 14 0;
#X connect 10 1 1 0;
#X connect 10 1 14 1;
#X connect 10 2 2 0;
#X connect 10 3 3 0;
#X connect 10 4 4 0;
#X connect 10 5 5 0;
#X connect 10 6 6 0;
#X connect 10 7 7 0;
#X connect 11 0 13 0;
#X connect 12 0 10 0;
#X connect 13 0 12 0;
#X connect 15 0 13 0;
