#N canvas 97 63 391 318 12;
#X obj 148 145 s~ \$0-dummy;
#X obj 44 258 outlet~;
#X obj 115 261 outlet~;
#X obj 44 194 receive~ \$0-dummy;
#X obj 66 221 receive~ \$0-dummy;
#X obj 42 32 inlet~;
#X obj 43 141 route 0 1;
#X obj 42 62 m~._in;
#X obj 42 118 mc._unpack \$0-dummy 2;
#X connect 3 0 1 0;
#X connect 4 0 2 0;
#X connect 5 0 7 0;
#X connect 6 0 3 0;
#X connect 6 1 4 0;
#X connect 7 0 8 0;
#X connect 8 0 6 0;
