#N canvas 10 57 606 351 12;
#X obj 219 113 s~ \$0-dummy;
#X obj 16 283 outlet~;
#X obj 87 286 outlet~;
#X obj 155 286 outlet~;
#X obj 225 287 outlet~;
#X obj 307 289 outlet~;
#X obj 375 288 outlet~;
#X obj 451 289 outlet~;
#X obj 513 288 outlet~;
#X obj 17 160 route 0 1 2 3 4 5 6 7;
#X obj 16 219 receive~ \$0-dummy;
#X obj 38 246 receive~ \$0-dummy;
#X obj 155 220 receive~ \$0-dummy;
#X obj 179 248 receive~ \$0-dummy;
#X obj 307 225 receive~ \$0-dummy;
#X obj 321 251 receive~ \$0-dummy;
#X obj 454 222 receive~ \$0-dummy;
#X obj 470 250 receive~ \$0-dummy;
#X obj 18 41 inlet~;
#X obj 18 74 mc._in;
#X obj 17 113 mc._unpack \$0-dummy 8;
#X obj 2 1 cnv 15 600 20 empty empty \$0 3 8 0 12 -233017 -66577 0
;
#X text 44 0 (c)grrrr.org \, gpl v3;
#X connect 9 0 10 0;
#X connect 9 1 11 0;
#X connect 9 2 12 0;
#X connect 9 3 13 0;
#X connect 9 4 14 0;
#X connect 9 5 15 0;
#X connect 9 6 16 0;
#X connect 9 7 17 0;
#X connect 10 0 1 0;
#X connect 11 0 2 0;
#X connect 12 0 3 0;
#X connect 13 0 4 0;
#X connect 14 0 5 0;
#X connect 15 0 6 0;
#X connect 16 0 7 0;
#X connect 17 0 8 0;
#X connect 18 0 19 0;
#X connect 19 0 20 0;
#X connect 20 0 9 0;
