#N canvas 10 57 680 344 12;
#X obj 268 123 s~ \$0-dummy;
#X obj 41 274 outlet~;
#X obj 112 277 outlet~;
#X obj 180 277 outlet~;
#X obj 250 278 outlet~;
#X obj 332 280 outlet~;
#X obj 403 282 outlet~;
#X obj 476 278 outlet~;
#X obj 555 273 outlet~;
#X obj 40 157 route 0 1 2 3 4 5 6 7;
#X obj 41 210 receive~ \$0-dummy;
#X obj 63 237 receive~ \$0-dummy;
#X obj 180 211 receive~ \$0-dummy;
#X obj 204 239 receive~ \$0-dummy;
#X obj 332 216 receive~ \$0-dummy;
#X obj 346 242 receive~ \$0-dummy;
#X obj 479 213 receive~ \$0-dummy;
#X obj 495 241 receive~ \$0-dummy;
#X obj 42 32 inlet~;
#X obj 42 65 m~._in;
#X obj 41 104 mc._unpack \$0-dummy 8;
#X connect 9 0 10 0;
#X connect 9 1 11 0;
#X connect 9 2 12 0;
#X connect 9 3 13 0;
#X connect 9 4 14 0;
#X connect 9 5 15 0;
#X connect 9 6 16 0;
#X connect 9 7 17 0;
#X connect 10 0 1 0;
#X connect 11 0 2 0;
#X connect 12 0 3 0;
#X connect 13 0 4 0;
#X connect 14 0 5 0;
#X connect 15 0 6 0;
#X connect 16 0 7 0;
#X connect 17 0 8 0;
#X connect 18 0 19 0;
#X connect 19 0 20 0;
#X connect 20 0 9 0;
