#N canvas 103 155 290 312 12;
#X obj 42 32 inlet;
#X obj 157 162 s~ \$0-dummy;
#X obj 44 256 outlet~;
#X obj 44 223 receive~ \$0-dummy;
#X obj 43 170 route 0;
#X obj 42 87 mc._in;
#X obj 42 127 mc._unpack \$0-dummy 1;
#X connect 0 0 5 0;
#X connect 3 0 2 0;
#X connect 4 0 3 0;
#X connect 5 0 6 0;
#X connect 6 0 4 0;
