#N canvas 127 61 424 372 12;
#X obj 181 190 s~ \$0-dummy;
#X obj 44 306 outlet~;
#X obj 115 309 outlet~;
#X obj 183 309 outlet~;
#X obj 253 310 outlet~;
#X obj 44 242 receive~ \$0-dummy;
#X obj 66 269 receive~ \$0-dummy;
#X obj 183 243 receive~ \$0-dummy;
#X obj 207 271 receive~ \$0-dummy;
#X obj 42 32 inlet~;
#X obj 43 189 route 0 1 2 3;
#X obj 42 60 mc._in;
#X obj 42 155 mc._unpack \$0-dummy 4;
#X connect 5 0 1 0;
#X connect 6 0 2 0;
#X connect 7 0 3 0;
#X connect 8 0 4 0;
#X connect 9 0 11 0;
#X connect 10 0 5 0;
#X connect 10 1 6 0;
#X connect 10 2 7 0;
#X connect 10 3 8 0;
#X connect 11 0 12 0;
#X connect 12 0 10 0;
