#N canvas 108 173 725 382 12;
#X obj 42 32 inlet;
#X obj 334 167 s~ \$0-dummy;
#X obj 41 285 outlet~;
#X obj 112 288 outlet~;
#X obj 180 288 outlet~;
#X obj 250 289 outlet~;
#X obj 332 291 outlet~;
#X obj 403 293 outlet~;
#X obj 476 289 outlet~;
#X obj 555 284 outlet~;
#X obj 42 152 route 0 1 2 3 4 5 6 7;
#X obj 41 221 receive~ \$0-dummy;
#X obj 63 248 receive~ \$0-dummy;
#X obj 180 222 receive~ \$0-dummy;
#X obj 204 250 receive~ \$0-dummy;
#X obj 332 227 receive~ \$0-dummy;
#X obj 346 253 receive~ \$0-dummy;
#X obj 479 224 receive~ \$0-dummy;
#X obj 495 252 receive~ \$0-dummy;
#X obj 42 78 mc._in;
#X obj 42 105 mc._unpack \$0-dummy 8;
#X connect 0 0 19 0;
#X connect 10 0 11 0;
#X connect 10 1 12 0;
#X connect 10 2 13 0;
#X connect 10 3 14 0;
#X connect 10 4 15 0;
#X connect 10 5 16 0;
#X connect 10 6 17 0;
#X connect 10 7 18 0;
#X connect 11 0 2 0;
#X connect 12 0 3 0;
#X connect 13 0 4 0;
#X connect 14 0 5 0;
#X connect 15 0 6 0;
#X connect 16 0 7 0;
#X connect 17 0 8 0;
#X connect 18 0 9 0;
#X connect 19 0 20 0;
#X connect 20 0 10 0;
