#N canvas 108 173 323 338 12;
#X obj 42 32 inlet;
#X obj 144 169 s~ \$0-dummy;
#X obj 44 287 outlet~;
#X obj 115 290 outlet~;
#X obj 44 223 receive~ \$0-dummy;
#X obj 66 250 receive~ \$0-dummy;
#X obj 43 170 route 0 1;
#X obj 42 87 mc._in;
#X obj 42 127 mc._unpack \$0-dummy 2;
#X connect 0 0 7 0;
#X connect 4 0 2 0;
#X connect 5 0 3 0;
#X connect 6 0 4 0;
#X connect 6 1 5 0;
#X connect 7 0 8 0;
#X connect 8 0 6 0;
