#N canvas 0 23 450 300 12;
#X obj 75 32 inlet~;
#X obj 75 62 tabsend~ \$0-mc-args;
#X obj 74 133 bang~;
#X obj 74 159 array get \$0-mc-args 0 2;
#X obj 74 220 outlet;
#X obj 74 85 array define \$0-mc-args 2;
#X obj 74 184 mc._chk;
#X connect 0 0 1 0;
#X connect 2 0 3 0;
#X connect 3 0 6 0;
#X connect 6 0 4 0;
