#N canvas 204 275 332 226 12;
#X obj 40 171 mc.snap~;
#X obj 162 171 mc.snap~;
#X obj 100 170 mc.snap~;
#X obj 40 145 m~.unpack~8, f 19;
#X obj 40 39 osc~ 0.05, f 18;
#X obj 40 85 m~.dist 8;
#X connect 3 0 0 0;
#X connect 3 3 2 0;
#X connect 3 7 1 0;
#X connect 4 0 5 0;
#X connect 5 0 3 0;
