#N canvas 69 23 292 257 12;
#X obj 168 40 inlet;
#X obj 43 194 outlet~;
#X obj 44 68 m~._in;
#X obj 43 162 m~._out;
#X obj 44 38 inlet~ fwd;
#X obj 43 125 mc._effect;
#X connect 0 0 5 1;
#X connect 2 0 5 0;
#X connect 3 0 1 0;
#X connect 4 0 2 0;
#X connect 4 1 5 0;
#X connect 5 0 3 0;
