#N canvas 73 99 331 275 12;
#X obj 39 231 mc.snap~;
#X obj 41 20 mc.sig~;
#X obj 155 20 mc.sig~;
#X obj 161 231 mc.snap~;
#X obj 99 230 mc.snap~;
#X obj 98 20 mc.sig~;
#X obj 39 205 m~.unpack~8, f 19;
#X obj 40 52 m~.pack~8, f 18;
#X floatatom 159 103 5 0 0 0 - - -;
#X msg 159 129 all op \$1;
#X obj 39 162 m~.map _binop *~ 2;
#X connect 1 0 7 0;
#X connect 2 0 7 7;
#X connect 5 0 7 3;
#X connect 6 0 0 0;
#X connect 6 3 4 0;
#X connect 6 7 3 0;
#X connect 7 0 10 0;
#X connect 8 0 9 0;
#X connect 9 0 10 1;
#X connect 10 0 6 0;
