#N canvas 562 120 331 275 12;
#X obj 39 180 route 0 1 2 3 4 5 6 7;
#X floatatom 39 204 5 0 0 0 - - -;
#X floatatom 182 203 5 0 0 0 - - -;
#X floatatom 95 206 5 0 0 0 - - -;
#X obj 39 119 m~.sink 1 env~;
#X obj 39 44 m~.source 8 noise~;
#X connect 0 0 1 0;
#X connect 0 3 3 0;
#X connect 0 8 2 0;
#X connect 4 0 0 0;
#X connect 5 0 4 0;
