#N canvas 82 68 357 376 12;
#X obj 151 189 s~ \$0-dummy;
#X obj 44 306 outlet~;
#X obj 44 242 receive~ \$0-dummy;
#X obj 42 32 inlet~;
#X obj 43 189 route 0;
#X obj 42 60 m~._in;
#X obj 43 149 mc._unpack \$0-dummy 1;
#X connect 2 0 1 0;
#X connect 3 0 5 0;
#X connect 4 0 2 0;
#X connect 5 0 6 0;
#X connect 6 0 4 0;
